<svg width="1963" height="1484" viewBox="0 0 1963 1484" fill="none" xmlns="http://www.w3.org/2000/svg">
<path d="M122.004 1054.65H0V1054.58V614.098H122.004V1054.65Z" fill="#00629B"/>
<path d="M521.581 1054.65H186.062V614.192H521.581V699.594H308.035V790.481H504.469V875.883H308.035V969.214H521.581V1054.65Z" fill="#00629B"/>
<path d="M925.419 1054.65H589.9V614.192H925.419V699.594H711.936V790.481H908.37V875.883H711.936V969.214H925.419V1054.65Z" fill="#00629B"/>
<path d="M1329.29 614.161V699.563V699.594H1115.77V790.481H1312.21V875.883H1115.77V969.214H1329.29V1054.65H993.769V614.161H1329.29Z" fill="#00629B"/>
<path fill-rule="evenodd" clip-rule="evenodd" d="M1963 1321.74H740.84V1483.19H1963V1321.74ZM1818.38 1401.21C1818.58 1411.83 1817.61 1431.91 1809.11 1446.4C1795.21 1469.96 1770.1 1473.82 1753.49 1473.82C1712.35 1473.82 1689.95 1449.1 1689.95 1404.87C1689.95 1389.04 1691.88 1372.81 1699.99 1359.3C1708.3 1345.39 1723.55 1331.68 1754.07 1331.68C1766.43 1331.68 1785.55 1334.19 1798.68 1346.55C1809.11 1356.59 1817.61 1371.85 1818.38 1401.21ZM1775.89 1402.36C1775.7 1380.15 1771.45 1360.84 1754.84 1360.84C1736.88 1360.84 1732.44 1379.57 1732.44 1403.91C1732.44 1416.27 1733.6 1444.27 1754.07 1444.27C1774.35 1444.27 1776.09 1417.81 1775.89 1402.36ZM858.747 1468.22L859.712 1467.06L861.064 1434.42L859.519 1433.65L859.353 1433.77C855.248 1436.7 847.36 1442.34 833.833 1442.34C818.189 1442.34 798.683 1434.23 798.683 1402.94C798.683 1373.01 816.837 1363.54 832.095 1363.54C845.685 1363.54 852.825 1369.62 856.712 1372.92L856.815 1373.01L858.167 1372.24C858.554 1358.14 858.747 1353.89 859.906 1340.37L859.133 1339.02C858.901 1338.93 858.667 1338.83 858.432 1338.74L858.42 1338.74L858.42 1338.74C850.621 1335.69 840.858 1331.87 824.369 1331.87C783.426 1331.87 755.035 1356.98 755.035 1404.68C755.035 1422.06 759.477 1445.24 778.211 1460.3C787.868 1468.03 801.773 1474.02 825.142 1474.02C839.2 1474.02 848.025 1471.4 858.236 1468.37L858.236 1468.37L858.747 1468.22ZM910.799 1437.9H948.459L955.798 1470.73L957.15 1471.7C959.461 1471.63 961.749 1471.54 964.022 1471.46L964.023 1471.46C968.399 1471.29 972.721 1471.12 977.043 1471.12H996.935L998.287 1469.57L959.082 1335.15L957.73 1334.19L908.674 1334.77L907.515 1335.73L865.413 1469.77L866.378 1471.12H901.915L903.267 1470.35L910.799 1437.9ZM941.893 1410.09H917.945L922.966 1390.58C927.215 1375.13 928.374 1370.69 930.691 1360.45L937.065 1389.62L941.893 1410.09ZM1051.68 1334.19L1053.04 1334.96C1052.94 1337.37 1052.79 1339.84 1052.65 1342.3C1052.5 1344.76 1052.36 1347.22 1052.26 1349.64C1051.84 1361.37 1051.63 1394.13 1051.47 1418.45C1051.4 1427.74 1051.35 1435.81 1051.3 1440.99C1074.72 1440.8 1079.48 1440.61 1097.92 1439.88L1099.19 1439.83L1100.16 1440.99L1098.23 1469.96L1097.26 1471.12C1055.93 1470.73 1045.31 1470.93 1010.74 1471.7L1009.77 1470.54C1009.97 1457.79 1009.97 1453.16 1009.97 1445.82V1445.82C1009.97 1429.4 1009.77 1412.99 1009.58 1396.57V1396.56C1009.58 1359.29 1009.58 1355.24 1009 1335.54L1010.16 1334.57L1051.68 1334.19ZM1209.17 1468.22L1210.14 1467.06L1211.49 1434.42L1209.95 1433.65L1209.78 1433.77C1205.68 1436.7 1197.79 1442.34 1184.26 1442.34C1168.62 1442.34 1149.11 1434.23 1149.11 1402.94C1149.11 1373.01 1167.27 1363.54 1182.52 1363.54C1196.11 1363.54 1203.25 1369.62 1207.14 1372.92L1207.24 1373.01L1208.6 1372.24C1208.98 1358.14 1209.17 1353.89 1210.33 1340.37L1209.56 1339.02C1209.32 1338.92 1209.09 1338.83 1208.85 1338.74C1201.05 1335.69 1191.29 1331.87 1174.8 1331.87C1133.85 1331.87 1105.46 1356.98 1105.46 1404.68C1105.46 1422.06 1109.91 1445.24 1128.64 1460.3C1138.3 1468.03 1152.2 1474.02 1175.57 1474.02C1189.63 1474.02 1198.45 1471.4 1208.66 1468.37L1209.17 1468.22ZM1270.78 1334.19L1271.75 1335.15C1271.17 1360.65 1270.59 1386.33 1270.59 1411.83C1270.59 1419.17 1270.59 1427.47 1272.71 1433.46C1275.23 1440.8 1280.44 1445.43 1289.52 1445.43C1292.99 1445.43 1298.4 1444.85 1302.84 1440.41C1308.83 1434.42 1308.83 1424.77 1308.83 1410.67C1308.83 1376.48 1308.25 1357.36 1307.48 1335.54L1308.44 1334.77L1343.79 1334.19L1344.95 1334.96L1343.98 1414.53L1343.79 1421.87L1343.77 1422.27C1343 1436.48 1342.09 1453.26 1326.41 1464.17C1318.1 1469.96 1304.39 1474.02 1286.81 1474.02C1272.91 1474.02 1250.5 1471.5 1239.11 1457.21C1230.11 1446.1 1229.65 1431.77 1229.27 1419.66L1229.26 1419.36V1413.37C1229.26 1375.99 1229.09 1367.02 1228.58 1340.61V1340.6L1228.49 1335.73L1229.26 1334.77C1247.22 1334.77 1252.05 1334.77 1270.78 1334.19ZM1415.72 1334.96L1414.37 1334.19L1372.85 1334.57L1371.69 1335.54C1372.27 1355.24 1372.27 1359.29 1372.27 1396.56V1396.57C1372.46 1412.99 1372.65 1429.4 1372.65 1445.82C1372.65 1453.16 1372.65 1457.79 1372.46 1470.54L1373.43 1471.7C1408 1470.93 1418.62 1470.73 1459.95 1471.12L1460.92 1469.96L1462.85 1440.99L1461.88 1439.83L1460.61 1439.88C1442.17 1440.61 1437.4 1440.8 1413.98 1440.99C1414.04 1435.81 1414.09 1427.75 1414.15 1418.46V1418.46V1418.46V1418.46V1418.46V1418.45V1418.45V1418.44C1414.31 1394.13 1414.53 1361.37 1414.95 1349.64C1415.05 1347.22 1415.19 1344.76 1415.34 1342.3C1415.48 1339.84 1415.63 1337.38 1415.72 1334.96ZM1552.94 1437.9H1515.28L1507.75 1470.35L1506.39 1471.12H1470.86L1469.89 1469.77L1511.99 1335.73L1513.15 1334.77L1562.21 1334.19L1563.56 1335.15L1602.77 1469.57L1601.41 1471.12H1581.52C1577.2 1471.12 1572.88 1471.29 1568.5 1471.46L1568.5 1471.46C1566.23 1471.54 1563.94 1471.63 1561.63 1471.7L1560.28 1470.73L1552.94 1437.9ZM1522.42 1410.09H1546.37L1541.54 1389.62L1535.17 1360.45C1532.85 1370.69 1531.69 1375.13 1527.44 1390.58L1522.42 1410.09ZM1660.02 1363.54L1689.37 1364.51L1690.53 1363.35C1690.92 1351.38 1691.11 1347.51 1692.08 1334.96L1691.11 1334.77H1590.11L1588.75 1335.93L1587.59 1363.74L1588.56 1364.7L1619.27 1363.93C1619.07 1419.17 1618.88 1430.95 1618.11 1470.54L1619.27 1471.7L1620.73 1471.65L1620.73 1471.65L1620.73 1471.65L1620.73 1471.65L1620.74 1471.65C1637.73 1471.11 1643.29 1470.93 1659.44 1471.12L1660.79 1469.77C1660.21 1445.43 1659.83 1422.64 1659.83 1399.47C1659.83 1393.49 1659.87 1387.51 1659.92 1381.53L1659.92 1381.51L1659.92 1381.48C1659.97 1375.5 1660.02 1369.52 1660.02 1363.54ZM1879.41 1420.71L1885.79 1420.52L1897.95 1446.01L1908.38 1470.35L1910.51 1471.89L1951.26 1470.15L1952.03 1468.41L1938.9 1445.82L1921.32 1411.63C1927.69 1408.74 1935.23 1405.26 1940.44 1394.25C1942.57 1389.81 1944.88 1383.05 1944.88 1373.78C1944.88 1356.59 1936.39 1346.55 1931.36 1342.69C1920.16 1334 1902.59 1334.19 1883.47 1334.57L1873.42 1334.77H1838.66L1837.7 1335.73C1839.05 1353.69 1839.82 1364.9 1839.82 1395.8C1839.82 1414.48 1839.49 1433.16 1839.17 1451.85C1839.06 1458.08 1838.95 1464.31 1838.85 1470.54L1839.82 1471.7L1879.6 1471.12L1880.76 1469.96C1879.6 1448.91 1879.41 1443.89 1879.41 1420.71ZM1879.41 1394.25L1879.8 1362.19C1880.96 1362.19 1882.79 1362.14 1884.63 1362.1C1886.46 1362.05 1888.3 1362 1889.45 1362C1900.85 1362 1905.1 1368.57 1905.1 1377.06C1905.1 1394.64 1886.56 1394.45 1879.41 1394.25Z" fill="#00629B"/>
<path fill-rule="evenodd" clip-rule="evenodd" d="M1338 1105H0V1266H1338V1105ZM878.137 1220.36L879.875 1219.78L879.876 1219.78C881.228 1220.94 882.579 1222.1 884.124 1223.07C891.85 1228.67 903.824 1231.18 912.515 1231.18C929.896 1231.18 931.635 1221.71 931.635 1218.43C931.635 1211.04 924.011 1207.74 918.251 1205.25L917.922 1205.1L908.266 1201.24C894.94 1195.25 876.785 1186.95 876.785 1160.49C876.785 1149.87 879.296 1138.67 889.146 1129.4C898.416 1120.9 910.39 1117.42 927.772 1117.42C947.284 1117.42 958.648 1122.35 964.493 1124.88L964.66 1124.95L965.433 1126.11L963.694 1156.24L961.956 1157.01C959.252 1154.89 956.549 1152.77 953.458 1151.03C946.892 1147.17 938.974 1145.23 932.793 1145.23C925.648 1145.23 922.944 1147.17 921.592 1148.13C919.274 1150.06 917.343 1153.54 917.343 1157.01C917.343 1164.28 925.853 1167.76 930.148 1169.51L930.283 1169.57L940.905 1174.01C941.035 1174.06 941.174 1174.12 941.322 1174.18C941.47 1174.24 941.626 1174.3 941.79 1174.37C945.619 1175.91 953.907 1179.24 961.377 1186.18C971.227 1195.25 972.578 1206.84 972.578 1213.99C972.578 1226.93 966.591 1236.58 964.853 1239.29C953.458 1256.09 933.759 1259.76 914.253 1259.76C895.127 1259.76 884.146 1255.59 878.495 1253.45L878.33 1253.39L876.785 1251.46L876.93 1249.27L876.93 1249.26V1249.26C877.771 1236.51 877.954 1233.73 878.137 1220.36ZM546.057 1119.93L537.559 1120.13L502.216 1120.51L501.443 1121.67C502.602 1139.05 503.182 1148.9 503.182 1180.19C503.182 1205.3 502.795 1230.6 502.216 1255.9L503.182 1256.86H546.829C574.833 1256.28 595.885 1255.7 609.597 1239.68C618.288 1229.63 618.481 1218.43 618.481 1214.57C618.481 1208.97 617.709 1201.82 612.687 1194.48C606.568 1185.69 597.609 1183.9 590.871 1182.55L590.67 1182.51L590.76 1182.46C595.971 1179.76 603.445 1175.88 608.245 1166.09C611.142 1160.1 611.335 1154.89 611.335 1152.38C611.335 1143.3 607.859 1134.61 600.906 1128.82C593.567 1122.64 584.876 1119.74 559.383 1119.74C554.941 1119.74 550.499 1119.74 546.057 1119.93ZM542.774 1231.56V1200.66C557.838 1200.47 559.576 1200.47 562.859 1201.24C565.37 1201.82 573.675 1203.95 573.675 1214.95C573.675 1220.56 570.971 1226.16 564.211 1229.25C558.61 1231.76 551.464 1231.76 542.774 1231.56ZM543.16 1174.01V1144.85L543.645 1144.84C554.958 1144.65 562.342 1144.53 566.722 1149.1C568.074 1150.45 570.391 1153.54 570.391 1158.95C570.391 1165.9 566.142 1172.85 553.782 1173.82C550.499 1174.01 547.216 1174.01 543.16 1174.01ZM91.436 1203.17L69.9984 1120.51L68.8396 1119.93C59.7624 1120.13 50.6852 1120.32 41.4149 1120.51H15.3422L14.1834 1121.48C12.4452 1185.79 11.6727 1202.21 7.81006 1256.28L8.77572 1257.44L41.0287 1256.86L42.3806 1255.7C42.3517 1254.17 42.3228 1252.69 42.2945 1251.24L42.2941 1251.22L42.2935 1251.18L42.2931 1251.17C42.1332 1242.96 41.9943 1235.83 41.9943 1227.31C41.9943 1210.9 42.3806 1194.48 42.7668 1178.07L43.5394 1150.64L55.7067 1195.45C61.8869 1218.62 63.8182 1226.16 71.5434 1256.28L72.8953 1257.44C86.8008 1256.67 90.2772 1256.67 103.024 1256.86L104.569 1255.7L122.144 1189.85L125.234 1178.07L132.38 1151.8V1180.77L133.925 1256.28L134.891 1257.44C151.307 1256.86 156.908 1256.67 172.744 1256.86L173.903 1255.7C173.324 1244.22 172.696 1232.73 172.069 1221.24L172.068 1221.23C171.441 1209.74 170.813 1198.25 170.234 1186.76C168.495 1154.7 168.109 1144.46 167.53 1121.09L166.371 1119.93L114.032 1120.51L112.68 1121.29C110.75 1129.59 108.626 1137.89 106.501 1146.19L106.501 1146.19L106.501 1146.2L106.501 1146.2L106.501 1146.2L106.501 1146.2L106.501 1146.2L106.501 1146.2L106.501 1146.2L106.501 1146.2L106.501 1146.2L106.5 1146.2C105.032 1151.68 103.503 1157.17 101.973 1162.65C99.6788 1170.88 97.3844 1179.11 95.2986 1187.34C94.7142 1189.67 94.1659 1191.98 93.6224 1194.26L93.622 1194.26L93.622 1194.26C92.9084 1197.25 92.2033 1200.21 91.436 1203.17ZM241.976 1200.47H282.147L283.499 1199.31L285.044 1174.01L283.885 1172.66L241.59 1173.43V1148.9H286.203L287.362 1147.94L288.714 1121.29L287.748 1120.51H200.839L199.68 1121.67C200.646 1141.37 201.032 1149.29 201.032 1195.64C201.032 1221.91 200.839 1233.88 200.259 1256.09L201.225 1257.44C205.108 1257.36 208.662 1257.28 212.055 1257.2L212.09 1257.2L212.113 1257.2L212.129 1257.2L212.139 1257.2L212.146 1257.2L212.151 1257.2C224.743 1256.91 235.12 1256.67 251.826 1256.67C253.673 1256.67 255.382 1256.69 257.711 1256.72C262.689 1256.77 270.496 1256.86 288.521 1256.86L290.259 1255.7L292.19 1227.12L291.031 1225.96C271.139 1226.74 257.04 1227.12 241.976 1227.12V1200.47ZM371.955 1120.51L393.392 1203.17C394.16 1200.21 394.865 1197.25 395.578 1194.26L395.579 1194.26L395.579 1194.26L395.579 1194.26L395.579 1194.26C396.122 1191.98 396.671 1189.67 397.255 1187.34C399.341 1179.11 401.635 1170.88 403.93 1162.65C405.459 1157.17 406.989 1151.68 408.457 1146.2L408.457 1146.2L408.457 1146.2L408.457 1146.2L408.457 1146.2L408.457 1146.2L408.457 1146.2L408.457 1146.2L408.457 1146.2L408.457 1146.2L408.458 1146.2C410.582 1137.89 412.706 1129.59 414.637 1121.29L415.989 1120.51L468.327 1119.93L469.486 1121.09C470.066 1144.46 470.452 1154.7 472.19 1186.76C472.769 1198.24 473.396 1209.73 474.024 1221.21L474.025 1221.23L474.026 1221.25C474.653 1232.74 475.281 1244.22 475.86 1255.7L474.701 1256.86C458.864 1256.67 453.263 1256.86 436.847 1257.44L435.881 1256.28L434.336 1180.77V1151.8L427.19 1178.07L424.1 1189.85L406.525 1255.7L404.98 1256.86C392.234 1256.67 388.757 1256.67 374.852 1257.44L373.5 1256.28L373.499 1256.28L373.498 1256.28C365.774 1226.15 363.843 1218.62 357.663 1195.45L345.496 1150.64L344.723 1178.07C344.337 1194.48 343.951 1210.9 343.951 1227.31C343.951 1235.83 344.09 1242.96 344.25 1251.17C344.278 1252.64 344.308 1254.15 344.337 1255.7L342.985 1256.86L310.732 1257.44L309.767 1256.28C313.629 1202.21 314.402 1185.79 316.14 1121.48L317.299 1120.51H343.371C352.642 1120.32 361.719 1120.13 370.796 1119.93L371.955 1120.51ZM721.219 1200.47H681.048V1227.12C696.112 1227.12 710.211 1226.74 730.104 1225.96L731.262 1227.12L729.331 1255.7L727.593 1256.86C709.568 1256.86 701.761 1256.77 696.784 1256.72C694.454 1256.69 692.745 1256.67 690.898 1256.67C674.192 1256.67 663.816 1256.91 651.223 1257.2L651.218 1257.2C647.798 1257.28 644.215 1257.36 640.297 1257.44L639.332 1256.09C639.911 1233.88 640.104 1221.91 640.104 1195.64C640.104 1149.29 639.718 1141.37 638.752 1121.67L639.911 1120.51H726.82L727.786 1121.29L726.434 1147.94L725.275 1148.9H680.662V1173.43L722.958 1172.66L724.116 1174.01L722.571 1199.31L721.219 1200.47ZM792.293 1206.46L798.667 1206.26L810.834 1231.76L821.263 1256.09L823.388 1257.64L864.138 1255.9L864.911 1254.16L851.778 1231.56L834.203 1197.38C840.576 1194.48 848.108 1191.01 853.323 1180C855.447 1175.56 857.765 1168.8 857.765 1159.53C857.765 1142.34 849.267 1132.29 844.246 1128.43C833.044 1119.74 815.469 1119.93 796.349 1120.32L786.306 1120.51H751.543L750.577 1121.48C751.929 1139.44 752.701 1150.64 752.701 1181.54C752.701 1200.23 752.375 1218.92 752.049 1237.6C751.941 1243.83 751.832 1250.06 751.736 1256.28L752.701 1257.44L792.486 1256.86L793.645 1255.7C792.486 1234.65 792.293 1229.63 792.293 1206.46ZM792.293 1180L792.68 1147.94C793.838 1147.94 795.673 1147.89 797.508 1147.84L797.509 1147.84C799.343 1147.79 801.178 1147.74 802.336 1147.74C813.731 1147.74 817.98 1154.31 817.98 1162.81C817.98 1180.38 799.439 1180.19 792.293 1180ZM1074.93 1235.69C1074.79 1243.17 1074.65 1250.61 1074.65 1256.28L1075.42 1257.44C1092.22 1256.86 1098.4 1256.86 1116.56 1256.86L1117.52 1255.7C1116.94 1232.53 1116.75 1218.82 1116.75 1195.06C1116.75 1170.34 1117.14 1145.43 1117.52 1120.71L1116.56 1119.93L1075.23 1120.51L1074.26 1121.48L1075.03 1169.57H1036.21V1121.09L1035.44 1119.93C1034.18 1119.99 1032.95 1120.04 1031.74 1120.09C1024.06 1120.42 1017.29 1120.71 1009.95 1120.71C1004.54 1120.71 999.326 1120.71 994.111 1120.51L993.339 1121.67C993.918 1142.92 994.304 1159.91 994.304 1178.84C994.304 1185.21 994.111 1203.56 993.532 1256.48L994.497 1257.44L1035.44 1256.86L1036.21 1255.9V1199.7C1045.29 1199.31 1051.28 1199.12 1058.81 1199.12C1064.22 1199.12 1069.63 1199.12 1075.03 1199.31C1075.23 1204.53 1075.23 1209.55 1075.23 1214.76C1075.23 1220.57 1075.08 1228.12 1074.94 1235.64L1074.94 1235.65V1235.66V1235.67L1074.93 1235.69ZM1190.33 1255.9L1189.56 1256.86C1171.21 1256.67 1166.58 1256.67 1147.46 1257.44L1146.68 1256.48C1146.68 1239.1 1146.88 1221.91 1147.07 1204.72C1147.26 1193.71 1147.46 1182.7 1147.46 1171.69C1147.46 1154.7 1147.07 1142.14 1146.3 1121.48L1147.26 1120.51C1166.19 1120.71 1170.25 1120.71 1189.17 1119.93L1189.94 1120.9L1189.85 1123.91C1189.33 1141.47 1188.98 1152.98 1188.98 1174.01C1188.98 1201.24 1189.56 1228.86 1190.33 1255.9ZM1269.71 1119.93L1260.44 1120.13L1220.46 1120.51L1219.3 1121.48C1219.36 1123.75 1219.41 1125.94 1219.47 1128.08C1219.79 1140.5 1220.07 1151.33 1220.07 1167.64C1220.07 1195.45 1219.49 1225.77 1218.72 1256.48L1220.07 1257.44C1236.88 1256.67 1241.51 1256.67 1259.47 1256.86L1260.44 1255.7C1260.05 1245.08 1259.86 1238.71 1259.86 1230.6C1259.86 1227.7 1259.91 1224.8 1259.96 1221.91C1260 1219.01 1260.05 1216.11 1260.05 1213.22L1260.89 1213.22C1279.62 1213.22 1301.01 1213.22 1315.29 1200.66C1328.42 1189.07 1330.16 1173.04 1330.16 1163.97C1330.16 1152.77 1327.45 1141.37 1319.54 1133.26C1307.37 1120.51 1290.76 1120.13 1269.71 1119.93ZM1260.24 1184.63V1147.74C1270.48 1147.74 1274.54 1147.74 1278.79 1149.29C1288.25 1152.57 1288.25 1162.42 1288.25 1164.55C1288.25 1171.69 1285.16 1178.45 1279.17 1181.74C1274.34 1184.44 1267.39 1184.63 1260.24 1184.63Z" fill="#00629B"/>
<path d="M1907.58 0H1413.78L1413.79 1054.27H1907.59C1937.89 1054.27 1962.46 1029.7 1962.46 999.4L1962.45 54.8669C1962.45 24.5657 1937.88 0 1907.58 0ZM1779.55 637.622H1596.66C1566.36 637.622 1541.8 613.056 1541.8 582.755C1541.8 552.454 1566.36 527.888 1596.66 527.888H1779.55C1809.85 527.888 1834.42 552.454 1834.42 582.755C1834.42 613.056 1809.85 637.622 1779.55 637.622ZM1779.55 418.154H1596.66C1566.36 418.154 1541.8 393.588 1541.8 363.287C1541.8 332.986 1566.36 308.42 1596.66 308.42H1779.55C1809.85 308.42 1834.42 332.986 1834.42 363.287C1834.42 393.588 1809.85 418.154 1779.55 418.154Z" fill="#00629B"/>
<path d="M548.669 0H54.8669C24.5657 0 0 24.5657 0 54.8669V548.669H548.669V0ZM365.779 329.201H329.201V365.779C329.201 396.08 304.632 420.646 274.334 420.646C244.033 420.646 219.468 396.08 219.468 365.779V329.201H182.89C152.588 329.201 128.023 304.636 128.023 274.334C128.023 244.033 152.588 219.468 182.89 219.468H219.468V182.89C219.468 152.588 244.033 128.023 274.334 128.023C304.632 128.023 329.201 152.588 329.201 182.89V219.468H365.779C396.077 219.468 420.646 244.033 420.646 274.334C420.646 304.636 396.077 329.201 365.779 329.201Z" fill="#00629B"/>
<path fill-rule="evenodd" clip-rule="evenodd" d="M1254.81 548.669V0H706.137V548.669H1254.81ZM1071.92 219.468H889.026C858.724 219.468 834.159 244.033 834.159 274.334C834.159 304.636 858.724 329.201 889.026 329.201H1071.92C1102.21 329.201 1126.78 304.636 1126.78 274.334C1126.78 244.033 1102.21 219.468 1071.92 219.468Z" fill="#00629B"/>
</svg>
