<svg width="4555" height="1490" viewBox="0 0 4555 1490" fill="none" xmlns="http://www.w3.org/2000/svg">
<path d="M122.004 1059.65H0V1059.58V619.098H122.004V1059.65Z" fill="#00629B"/>
<path d="M521.581 1059.65H186.062V619.192H521.581V704.594H308.035V795.481H504.469V880.883H308.035V974.214H521.581V1059.65Z" fill="#00629B"/>
<path d="M925.419 1059.65H589.9V619.192H925.419V704.594H711.936V795.481H908.37V880.883H711.936V974.214H925.419V1059.65Z" fill="#00629B"/>
<path d="M1329.29 619.161V704.563V704.594H1115.77V795.481H1312.21V880.883H1115.77V974.214H1329.29V1059.65H993.769V619.161H1329.29Z" fill="#00629B"/>
<path fill-rule="evenodd" clip-rule="evenodd" d="M1963 1326.74H740.84V1488.19H1963V1326.74ZM1818.38 1406.21C1818.58 1416.83 1817.61 1436.91 1809.11 1451.4C1795.21 1474.96 1770.1 1478.82 1753.49 1478.82C1712.35 1478.82 1689.95 1454.1 1689.95 1409.87C1689.95 1394.04 1691.88 1377.81 1699.99 1364.3C1708.3 1350.39 1723.55 1336.68 1754.07 1336.68C1766.43 1336.68 1785.55 1339.19 1798.68 1351.55C1809.11 1361.59 1817.61 1376.85 1818.38 1406.21ZM1775.89 1407.36C1775.7 1385.15 1771.45 1365.84 1754.84 1365.84C1736.88 1365.84 1732.44 1384.57 1732.44 1408.91C1732.44 1421.27 1733.6 1449.27 1754.07 1449.27C1774.35 1449.27 1776.09 1422.81 1775.89 1407.36ZM858.747 1473.22L859.712 1472.06L861.064 1439.42L859.519 1438.65L859.353 1438.77C855.248 1441.7 847.36 1447.34 833.833 1447.34C818.189 1447.34 798.683 1439.23 798.683 1407.94C798.683 1378.01 816.837 1368.54 832.095 1368.54C845.685 1368.54 852.825 1374.62 856.712 1377.92L856.815 1378.01L858.167 1377.24C858.554 1363.14 858.747 1358.89 859.906 1345.37L859.133 1344.02C858.901 1343.93 858.667 1343.83 858.432 1343.74L858.42 1343.74L858.42 1343.74C850.621 1340.69 840.858 1336.87 824.369 1336.87C783.426 1336.87 755.035 1361.98 755.035 1409.68C755.035 1427.06 759.477 1450.24 778.211 1465.3C787.868 1473.03 801.773 1479.02 825.142 1479.02C839.2 1479.02 848.025 1476.4 858.236 1473.37L858.236 1473.37L858.747 1473.22ZM910.799 1442.9H948.459L955.798 1475.73L957.15 1476.7C959.461 1476.63 961.749 1476.54 964.022 1476.46L964.023 1476.46C968.399 1476.29 972.721 1476.12 977.043 1476.12H996.935L998.287 1474.57L959.082 1340.15L957.73 1339.19L908.674 1339.77L907.515 1340.73L865.413 1474.77L866.378 1476.12H901.915L903.267 1475.35L910.799 1442.9ZM941.893 1415.09H917.945L922.966 1395.58C927.215 1380.13 928.374 1375.69 930.691 1365.45L937.065 1394.62L941.893 1415.09ZM1051.68 1339.19L1053.04 1339.96C1052.94 1342.37 1052.79 1344.84 1052.65 1347.3C1052.5 1349.76 1052.36 1352.22 1052.26 1354.64C1051.84 1366.37 1051.63 1399.13 1051.47 1423.45C1051.4 1432.74 1051.35 1440.81 1051.3 1445.99C1074.72 1445.8 1079.48 1445.61 1097.92 1444.88L1099.19 1444.83L1100.16 1445.99L1098.23 1474.96L1097.26 1476.12C1055.93 1475.73 1045.31 1475.93 1010.74 1476.7L1009.77 1475.54C1009.97 1462.79 1009.97 1458.16 1009.97 1450.82V1450.82C1009.97 1434.4 1009.77 1417.99 1009.58 1401.57V1401.56C1009.58 1364.29 1009.58 1360.24 1009 1340.54L1010.16 1339.57L1051.68 1339.19ZM1209.17 1473.22L1210.14 1472.06L1211.49 1439.42L1209.95 1438.65L1209.78 1438.77C1205.68 1441.7 1197.79 1447.34 1184.26 1447.34C1168.62 1447.34 1149.11 1439.23 1149.11 1407.94C1149.11 1378.01 1167.27 1368.54 1182.52 1368.54C1196.11 1368.54 1203.25 1374.62 1207.14 1377.92L1207.24 1378.01L1208.6 1377.24C1208.98 1363.14 1209.17 1358.89 1210.33 1345.37L1209.56 1344.02C1209.32 1343.92 1209.09 1343.83 1208.85 1343.74C1201.05 1340.69 1191.29 1336.87 1174.8 1336.87C1133.85 1336.87 1105.46 1361.98 1105.46 1409.68C1105.46 1427.06 1109.91 1450.24 1128.64 1465.3C1138.3 1473.03 1152.2 1479.02 1175.57 1479.02C1189.63 1479.02 1198.45 1476.4 1208.66 1473.37L1209.17 1473.22ZM1270.78 1339.19L1271.75 1340.15C1271.17 1365.65 1270.59 1391.33 1270.59 1416.83C1270.59 1424.17 1270.59 1432.47 1272.71 1438.46C1275.23 1445.8 1280.44 1450.43 1289.52 1450.43C1292.99 1450.43 1298.4 1449.85 1302.84 1445.41C1308.83 1439.42 1308.83 1429.77 1308.83 1415.67C1308.83 1381.48 1308.25 1362.36 1307.48 1340.54L1308.44 1339.77L1343.79 1339.19L1344.95 1339.96L1343.98 1419.53L1343.79 1426.87L1343.77 1427.27C1343 1441.48 1342.09 1458.26 1326.41 1469.17C1318.1 1474.96 1304.39 1479.02 1286.81 1479.02C1272.91 1479.02 1250.5 1476.5 1239.11 1462.21C1230.11 1451.1 1229.65 1436.77 1229.27 1424.66L1229.26 1424.36V1418.37C1229.26 1380.99 1229.09 1372.02 1228.58 1345.61V1345.6L1228.49 1340.73L1229.26 1339.77C1247.22 1339.77 1252.05 1339.77 1270.78 1339.19ZM1415.72 1339.96L1414.37 1339.19L1372.85 1339.57L1371.69 1340.54C1372.27 1360.24 1372.27 1364.29 1372.27 1401.56V1401.57C1372.46 1417.99 1372.65 1434.4 1372.65 1450.82C1372.65 1458.16 1372.65 1462.79 1372.46 1475.54L1373.43 1476.7C1408 1475.93 1418.62 1475.73 1459.95 1476.12L1460.92 1474.96L1462.85 1445.99L1461.88 1444.83L1460.61 1444.88C1442.17 1445.61 1437.4 1445.8 1413.98 1445.99C1414.04 1440.81 1414.09 1432.75 1414.15 1423.46V1423.46V1423.46V1423.46V1423.46V1423.45V1423.45V1423.44C1414.31 1399.13 1414.53 1366.37 1414.95 1354.64C1415.05 1352.22 1415.19 1349.76 1415.34 1347.3C1415.48 1344.84 1415.63 1342.38 1415.72 1339.96ZM1552.94 1442.9H1515.28L1507.75 1475.35L1506.39 1476.12H1470.86L1469.89 1474.77L1511.99 1340.73L1513.15 1339.77L1562.21 1339.19L1563.56 1340.15L1602.77 1474.57L1601.41 1476.12H1581.52C1577.2 1476.12 1572.88 1476.29 1568.5 1476.46L1568.5 1476.46C1566.23 1476.54 1563.94 1476.63 1561.63 1476.7L1560.28 1475.73L1552.94 1442.9ZM1522.42 1415.09H1546.37L1541.54 1394.62L1535.17 1365.45C1532.85 1375.69 1531.69 1380.13 1527.44 1395.58L1522.42 1415.09ZM1660.02 1368.54L1689.37 1369.51L1690.53 1368.35C1690.92 1356.38 1691.11 1352.51 1692.08 1339.96L1691.11 1339.77H1590.11L1588.75 1340.93L1587.59 1368.74L1588.56 1369.7L1619.27 1368.93C1619.07 1424.17 1618.88 1435.95 1618.11 1475.54L1619.27 1476.7L1620.73 1476.65L1620.73 1476.65L1620.73 1476.65L1620.73 1476.65L1620.74 1476.65C1637.73 1476.11 1643.29 1475.93 1659.44 1476.12L1660.79 1474.77C1660.21 1450.43 1659.83 1427.64 1659.83 1404.47C1659.83 1398.49 1659.87 1392.51 1659.92 1386.53L1659.92 1386.51L1659.92 1386.48C1659.97 1380.5 1660.02 1374.52 1660.02 1368.54ZM1879.41 1425.71L1885.79 1425.52L1897.95 1451.01L1908.38 1475.35L1910.51 1476.89L1951.26 1475.15L1952.03 1473.41L1938.9 1450.82L1921.32 1416.63C1927.69 1413.74 1935.23 1410.26 1940.44 1399.25C1942.57 1394.81 1944.88 1388.05 1944.88 1378.78C1944.88 1361.59 1936.39 1351.55 1931.36 1347.69C1920.16 1339 1902.59 1339.19 1883.47 1339.57L1873.42 1339.77H1838.66L1837.7 1340.73C1839.05 1358.69 1839.82 1369.9 1839.82 1400.8C1839.82 1419.48 1839.49 1438.16 1839.17 1456.85C1839.06 1463.08 1838.95 1469.31 1838.85 1475.54L1839.82 1476.7L1879.6 1476.12L1880.76 1474.96C1879.6 1453.91 1879.41 1448.89 1879.41 1425.71ZM1879.41 1399.25L1879.8 1367.19C1880.96 1367.19 1882.79 1367.14 1884.63 1367.1C1886.46 1367.05 1888.3 1367 1889.45 1367C1900.85 1367 1905.1 1373.57 1905.1 1382.06C1905.1 1399.64 1886.56 1399.45 1879.41 1399.25Z" fill="#00629B"/>
<path fill-rule="evenodd" clip-rule="evenodd" d="M1338 1110H0V1271H1338V1110ZM878.137 1225.36L879.875 1224.78L879.876 1224.78C881.228 1225.94 882.579 1227.1 884.124 1228.07C891.85 1233.67 903.824 1236.18 912.515 1236.18C929.896 1236.18 931.635 1226.71 931.635 1223.43C931.635 1216.04 924.011 1212.74 918.251 1210.25L917.922 1210.1L908.266 1206.24C894.94 1200.25 876.785 1191.95 876.785 1165.49C876.785 1154.87 879.296 1143.67 889.146 1134.4C898.416 1125.9 910.39 1122.42 927.772 1122.42C947.284 1122.42 958.648 1127.35 964.493 1129.88L964.66 1129.95L965.433 1131.11L963.694 1161.24L961.956 1162.01C959.252 1159.89 956.549 1157.77 953.458 1156.03C946.892 1152.17 938.974 1150.23 932.793 1150.23C925.648 1150.23 922.944 1152.17 921.592 1153.13C919.274 1155.06 917.343 1158.54 917.343 1162.01C917.343 1169.28 925.853 1172.76 930.148 1174.51L930.283 1174.57L940.905 1179.01C941.035 1179.06 941.174 1179.12 941.322 1179.18C941.47 1179.24 941.626 1179.3 941.79 1179.37C945.619 1180.91 953.907 1184.24 961.377 1191.18C971.227 1200.25 972.578 1211.84 972.578 1218.99C972.578 1231.93 966.591 1241.58 964.853 1244.29C953.458 1261.09 933.759 1264.76 914.253 1264.76C895.127 1264.76 884.146 1260.59 878.495 1258.45L878.33 1258.39L876.785 1256.46L876.93 1254.27L876.93 1254.26V1254.26C877.771 1241.51 877.954 1238.73 878.137 1225.36ZM546.057 1124.93L537.559 1125.13L502.216 1125.51L501.443 1126.67C502.602 1144.05 503.182 1153.9 503.182 1185.19C503.182 1210.3 502.795 1235.6 502.216 1260.9L503.182 1261.86H546.829C574.833 1261.28 595.885 1260.7 609.597 1244.68C618.288 1234.63 618.481 1223.43 618.481 1219.57C618.481 1213.97 617.709 1206.82 612.687 1199.48C606.568 1190.69 597.609 1188.9 590.871 1187.55L590.67 1187.51L590.76 1187.46C595.971 1184.76 603.445 1180.88 608.245 1171.09C611.142 1165.1 611.335 1159.89 611.335 1157.38C611.335 1148.3 607.859 1139.61 600.906 1133.82C593.567 1127.64 584.876 1124.74 559.383 1124.74C554.941 1124.74 550.499 1124.74 546.057 1124.93ZM542.774 1236.56V1205.66C557.838 1205.47 559.576 1205.47 562.859 1206.24C565.37 1206.82 573.675 1208.95 573.675 1219.95C573.675 1225.56 570.971 1231.16 564.211 1234.25C558.61 1236.76 551.464 1236.76 542.774 1236.56ZM543.16 1179.01V1149.85L543.645 1149.84C554.958 1149.65 562.342 1149.53 566.722 1154.1C568.074 1155.45 570.391 1158.54 570.391 1163.95C570.391 1170.9 566.142 1177.85 553.782 1178.82C550.499 1179.01 547.216 1179.01 543.16 1179.01ZM91.436 1208.17L69.9984 1125.51L68.8396 1124.93C59.7624 1125.13 50.6852 1125.32 41.4149 1125.51H15.3422L14.1834 1126.48C12.4452 1190.79 11.6727 1207.21 7.81006 1261.28L8.77572 1262.44L41.0287 1261.86L42.3806 1260.7C42.3517 1259.17 42.3228 1257.69 42.2945 1256.24L42.2941 1256.22L42.2935 1256.18L42.2931 1256.17C42.1332 1247.96 41.9943 1240.83 41.9943 1232.31C41.9943 1215.9 42.3806 1199.48 42.7668 1183.07L43.5394 1155.64L55.7067 1200.45C61.8869 1223.62 63.8182 1231.16 71.5434 1261.28L72.8953 1262.44C86.8008 1261.67 90.2772 1261.67 103.024 1261.86L104.569 1260.7L122.144 1194.85L125.234 1183.07L132.38 1156.8V1185.77L133.925 1261.28L134.891 1262.44C151.307 1261.86 156.908 1261.67 172.744 1261.86L173.903 1260.7C173.324 1249.22 172.696 1237.73 172.069 1226.24L172.068 1226.23C171.441 1214.74 170.813 1203.25 170.234 1191.76C168.495 1159.7 168.109 1149.46 167.53 1126.09L166.371 1124.93L114.032 1125.51L112.68 1126.29C110.75 1134.59 108.626 1142.89 106.501 1151.19L106.501 1151.19L106.501 1151.2L106.501 1151.2L106.501 1151.2L106.501 1151.2L106.501 1151.2L106.501 1151.2L106.501 1151.2L106.501 1151.2L106.501 1151.2L106.5 1151.2C105.032 1156.68 103.503 1162.17 101.973 1167.65C99.6788 1175.88 97.3844 1184.11 95.2986 1192.34C94.7142 1194.67 94.1659 1196.98 93.6224 1199.26L93.622 1199.26L93.622 1199.26C92.9084 1202.25 92.2033 1205.21 91.436 1208.17ZM241.976 1205.47H282.147L283.499 1204.31L285.044 1179.01L283.885 1177.66L241.59 1178.43V1153.9H286.203L287.362 1152.94L288.714 1126.29L287.748 1125.51H200.839L199.68 1126.67C200.646 1146.37 201.032 1154.29 201.032 1200.64C201.032 1226.91 200.839 1238.88 200.259 1261.09L201.225 1262.44C205.108 1262.36 208.662 1262.28 212.055 1262.2L212.09 1262.2L212.113 1262.2L212.129 1262.2L212.139 1262.2L212.146 1262.2L212.151 1262.2C224.743 1261.91 235.12 1261.67 251.826 1261.67C253.673 1261.67 255.382 1261.69 257.711 1261.72C262.689 1261.77 270.496 1261.86 288.521 1261.86L290.259 1260.7L292.19 1232.12L291.031 1230.96C271.139 1231.74 257.04 1232.12 241.976 1232.12V1205.47ZM371.955 1125.51L393.392 1208.17C394.16 1205.21 394.865 1202.25 395.578 1199.26L395.579 1199.26L395.579 1199.26L395.579 1199.26L395.579 1199.26C396.122 1196.98 396.671 1194.67 397.255 1192.34C399.341 1184.11 401.635 1175.88 403.93 1167.65C405.459 1162.17 406.989 1156.68 408.457 1151.2L408.457 1151.2L408.457 1151.2L408.457 1151.2L408.457 1151.2L408.457 1151.2L408.457 1151.2L408.457 1151.2L408.457 1151.2L408.457 1151.2L408.458 1151.2C410.582 1142.89 412.706 1134.59 414.637 1126.29L415.989 1125.51L468.327 1124.93L469.486 1126.09C470.066 1149.46 470.452 1159.7 472.19 1191.76C472.769 1203.24 473.396 1214.73 474.024 1226.21L474.025 1226.23L474.026 1226.25C474.653 1237.74 475.281 1249.22 475.86 1260.7L474.701 1261.86C458.864 1261.67 453.263 1261.86 436.847 1262.44L435.881 1261.28L434.336 1185.77V1156.8L427.19 1183.07L424.1 1194.85L406.525 1260.7L404.98 1261.86C392.234 1261.67 388.757 1261.67 374.852 1262.44L373.5 1261.28L373.499 1261.28L373.498 1261.28C365.774 1231.15 363.843 1223.62 357.663 1200.45L345.496 1155.64L344.723 1183.07C344.337 1199.48 343.951 1215.9 343.951 1232.31C343.951 1240.83 344.09 1247.96 344.25 1256.17C344.278 1257.64 344.308 1259.15 344.337 1260.7L342.985 1261.86L310.732 1262.44L309.767 1261.28C313.629 1207.21 314.402 1190.79 316.14 1126.48L317.299 1125.51H343.371C352.642 1125.32 361.719 1125.13 370.796 1124.93L371.955 1125.51ZM721.219 1205.47H681.048V1232.12C696.112 1232.12 710.211 1231.74 730.104 1230.96L731.262 1232.12L729.331 1260.7L727.593 1261.86C709.568 1261.86 701.761 1261.77 696.784 1261.72C694.454 1261.69 692.745 1261.67 690.898 1261.67C674.192 1261.67 663.816 1261.91 651.223 1262.2L651.218 1262.2C647.798 1262.28 644.215 1262.36 640.297 1262.44L639.332 1261.09C639.911 1238.88 640.104 1226.91 640.104 1200.64C640.104 1154.29 639.718 1146.37 638.752 1126.67L639.911 1125.51H726.82L727.786 1126.29L726.434 1152.94L725.275 1153.9H680.662V1178.43L722.958 1177.66L724.116 1179.01L722.571 1204.31L721.219 1205.47ZM792.293 1211.46L798.667 1211.26L810.834 1236.76L821.263 1261.09L823.388 1262.64L864.138 1260.9L864.911 1259.16L851.778 1236.56L834.203 1202.38C840.576 1199.48 848.108 1196.01 853.323 1185C855.447 1180.56 857.765 1173.8 857.765 1164.53C857.765 1147.34 849.267 1137.29 844.246 1133.43C833.044 1124.74 815.469 1124.93 796.349 1125.32L786.306 1125.51H751.543L750.577 1126.48C751.929 1144.44 752.701 1155.64 752.701 1186.54C752.701 1205.23 752.375 1223.92 752.049 1242.6C751.941 1248.83 751.832 1255.06 751.736 1261.28L752.701 1262.44L792.486 1261.86L793.645 1260.7C792.486 1239.65 792.293 1234.63 792.293 1211.46ZM792.293 1185L792.68 1152.94C793.838 1152.94 795.673 1152.89 797.508 1152.84L797.509 1152.84C799.343 1152.79 801.178 1152.74 802.336 1152.74C813.731 1152.74 817.98 1159.31 817.98 1167.81C817.98 1185.38 799.439 1185.19 792.293 1185ZM1074.93 1240.69C1074.79 1248.17 1074.65 1255.61 1074.65 1261.28L1075.42 1262.44C1092.22 1261.86 1098.4 1261.86 1116.56 1261.86L1117.52 1260.7C1116.94 1237.53 1116.75 1223.82 1116.75 1200.06C1116.75 1175.34 1117.14 1150.43 1117.52 1125.71L1116.56 1124.93L1075.23 1125.51L1074.26 1126.48L1075.03 1174.57H1036.21V1126.09L1035.44 1124.93C1034.18 1124.99 1032.95 1125.04 1031.74 1125.09C1024.06 1125.42 1017.29 1125.71 1009.95 1125.71C1004.54 1125.71 999.326 1125.71 994.111 1125.51L993.339 1126.67C993.918 1147.92 994.304 1164.91 994.304 1183.84C994.304 1190.21 994.111 1208.56 993.532 1261.48L994.497 1262.44L1035.44 1261.86L1036.21 1260.9V1204.7C1045.29 1204.31 1051.28 1204.12 1058.81 1204.12C1064.22 1204.12 1069.63 1204.12 1075.03 1204.31C1075.23 1209.53 1075.23 1214.55 1075.23 1219.76C1075.23 1225.57 1075.08 1233.12 1074.94 1240.64L1074.94 1240.65V1240.66V1240.67L1074.93 1240.69ZM1190.33 1260.9L1189.56 1261.86C1171.21 1261.67 1166.58 1261.67 1147.46 1262.44L1146.68 1261.48C1146.68 1244.1 1146.88 1226.91 1147.07 1209.72C1147.26 1198.71 1147.46 1187.7 1147.46 1176.69C1147.46 1159.7 1147.07 1147.14 1146.3 1126.48L1147.26 1125.51C1166.19 1125.71 1170.25 1125.71 1189.17 1124.93L1189.94 1125.9L1189.85 1128.91C1189.33 1146.47 1188.98 1157.98 1188.98 1179.01C1188.98 1206.24 1189.56 1233.86 1190.33 1260.9ZM1269.71 1124.93L1260.44 1125.13L1220.46 1125.51L1219.3 1126.48C1219.36 1128.75 1219.41 1130.94 1219.47 1133.08C1219.79 1145.5 1220.07 1156.33 1220.07 1172.64C1220.07 1200.45 1219.49 1230.77 1218.72 1261.48L1220.07 1262.44C1236.88 1261.67 1241.51 1261.67 1259.47 1261.86L1260.44 1260.7C1260.05 1250.08 1259.86 1243.71 1259.86 1235.6C1259.86 1232.7 1259.91 1229.8 1259.96 1226.91C1260 1224.01 1260.05 1221.11 1260.05 1218.22L1260.89 1218.22C1279.62 1218.22 1301.01 1218.22 1315.29 1205.66C1328.42 1194.07 1330.16 1178.04 1330.16 1168.97C1330.16 1157.77 1327.45 1146.37 1319.54 1138.26C1307.37 1125.51 1290.76 1125.13 1269.71 1124.93ZM1260.24 1189.63V1152.74C1270.48 1152.74 1274.54 1152.74 1278.79 1154.29C1288.25 1157.57 1288.25 1167.42 1288.25 1169.55C1288.25 1176.69 1285.16 1183.45 1279.17 1186.74C1274.34 1189.44 1267.39 1189.63 1260.24 1189.63Z" fill="#00629B"/>
<path d="M1907.58 5H1413.78L1413.79 1059.27H1907.59C1937.89 1059.27 1962.46 1034.7 1962.46 1004.4L1962.45 59.8669C1962.45 29.5657 1937.88 5 1907.58 5ZM1779.55 642.622H1596.66C1566.36 642.622 1541.8 618.056 1541.8 587.755C1541.8 557.454 1566.36 532.888 1596.66 532.888H1779.55C1809.85 532.888 1834.42 557.454 1834.42 587.755C1834.42 618.056 1809.85 642.622 1779.55 642.622ZM1779.55 423.154H1596.66C1566.36 423.154 1541.8 398.588 1541.8 368.287C1541.8 337.986 1566.36 313.42 1596.66 313.42H1779.55C1809.85 313.42 1834.42 337.986 1834.42 368.287C1834.42 398.588 1809.85 423.154 1779.55 423.154Z" fill="#00629B"/>
<path d="M548.669 5H54.8669C24.5657 5 0 29.5657 0 59.8669V553.669H548.669V5ZM365.779 334.201H329.201V370.779C329.201 401.08 304.632 425.646 274.334 425.646C244.033 425.646 219.468 401.08 219.468 370.779V334.201H182.89C152.588 334.201 128.023 309.636 128.023 279.334C128.023 249.033 152.588 224.468 182.89 224.468H219.468V187.89C219.468 157.588 244.033 133.023 274.334 133.023C304.632 133.023 329.201 157.588 329.201 187.89V224.468H365.779C396.077 224.468 420.646 249.033 420.646 279.334C420.646 309.636 396.077 334.201 365.779 334.201Z" fill="#00629B"/>
<path fill-rule="evenodd" clip-rule="evenodd" d="M1254.81 553.669V5H706.137V553.669H1254.81ZM1071.92 224.468H889.026C858.724 224.468 834.159 249.033 834.159 279.334C834.159 309.636 858.724 334.201 889.026 334.201H1071.92C1102.21 334.201 1126.78 309.636 1126.78 279.334C1126.78 249.033 1102.21 224.468 1071.92 224.468Z" fill="#00629B"/>
<path d="M3040.08 16.1L3048.48 15.925C3067.55 16.1 3082.6 16.45 3093.63 28C3100.8 35.35 3103.25 45.675 3103.25 55.825C3103.25 64.05 3101.68 78.575 3089.78 89.075C3076.65 100.625 3056.88 100.45 3039.73 100.45C3039.73 105.7 3039.55 110.95 3039.55 116.2C3039.55 123.55 3039.73 129.325 3040.08 138.95L3039.2 140C3022.93 139.825 3018.72 139.825 3003.5 140.525L3002.28 139.65C3002.98 111.825 3003.5 84.35 3003.5 59.15C3003.5 41.825 3003.15 31.325 3002.8 17.325L3003.85 16.45L3040.08 16.1ZM3039.9 41.125V74.55C3046.38 74.55 3052.68 74.375 3057.05 71.925C3062.48 68.95 3065.28 62.825 3065.28 56.35C3065.28 54.425 3065.28 45.5 3056.7 42.525C3052.85 41.125 3049.18 41.125 3039.9 41.125ZM3203.52 93.1C3203.52 99.4 3202.82 114.8 3195.82 124.95C3186.72 137.725 3171.67 142.1 3155.92 142.1C3149.79 142.1 3140.17 141.225 3132.82 138.425C3109.54 130.025 3107.62 106.75 3107.62 93.975C3107.62 81.375 3109.54 68.25 3117.77 58.625C3129.32 45.15 3147.87 44.275 3155.74 44.275C3168.87 44.275 3182.17 47.25 3191.44 56.35C3197.57 62.3 3203.52 72.1 3203.52 93.1ZM3167.29 91.525C3167.29 75.6 3164.49 65.8 3155.92 65.8C3145.07 65.8 3143.84 79.1 3143.84 94.85C3143.84 100.45 3144.02 105.525 3145.24 110.425C3147.69 120.4 3154.52 120.4 3155.57 120.4C3159.42 120.4 3162.39 117.95 3164.32 113.925C3167.29 108.325 3167.29 95.025 3167.29 91.525ZM3291.19 140.525L3289.79 139.3C3288.04 129.5 3286.29 119.525 3284.54 109.55C3282.79 100.975 3281.21 92.4 3279.46 83.825L3267.21 138.95L3265.99 140C3250.59 139.825 3246.04 140 3232.21 140.525L3230.64 139.475C3229.24 134.575 3228.54 132.3 3223.46 112.35C3221.36 104.3 3219.09 96.25 3216.64 88.2C3212.79 74.9 3209.11 61.425 3205.44 48.125L3206.31 46.725C3221.54 46.55 3225.04 46.375 3239.91 45.15L3241.14 46.2C3245.34 69.825 3246.74 76.475 3252.69 102.375C3258.46 76.125 3259.69 69.825 3263.71 47.25L3264.76 46.2C3280.34 46.55 3284.36 46.375 3300.64 45.675L3302.04 46.725C3305.19 66.5 3306.76 74.725 3312.01 102.725C3317.96 77.175 3319.19 70.525 3322.86 47.25L3323.91 46.2C3335.11 46.55 3338.09 46.375 3351.04 45.675L3351.91 46.9C3338.79 92.575 3335.64 104.125 3326.19 138.775L3325.14 140C3310.44 139.825 3306.76 139.825 3291.19 140.525ZM3443.97 100.8L3389.72 101.5C3390.77 106.75 3391.82 110.6 3397.77 114.275C3400.39 115.85 3405.82 117.95 3413.87 117.95C3423.32 117.95 3432.77 116.2 3440.64 110.95L3441.87 111.825L3440.99 134.225L3439.94 135.8C3438.02 136.675 3435.92 137.55 3433.99 138.25C3430.84 139.3 3420.52 142.1 3407.04 142.1C3397.77 142.1 3383.77 140.7 3373.62 133.7C3360.32 124.6 3354.89 109.55 3354.89 93.275C3354.89 57.4 3380.09 44.275 3402.14 44.275C3411.07 44.275 3421.74 46.55 3429.27 52.5C3445.02 64.925 3445.19 86.45 3445.19 99.4L3443.97 100.8ZM3388.84 82.25L3412.29 81.9C3412.12 77.525 3411.59 66.15 3401.09 66.15C3400.22 66.15 3398.64 66.15 3396.72 67.025C3389.37 70.175 3389.02 77.875 3388.84 82.25ZM3456.48 50.4L3457.53 49.175C3472.93 47.25 3476.96 46.725 3493.93 43.05L3495.16 44.45L3494.81 61.95C3496.03 59.325 3497.26 56.525 3499.01 53.9C3503.73 46.725 3510.03 42.875 3518.26 42.875C3520.36 42.875 3522.28 43.05 3524.38 43.4L3525.61 44.45C3521.76 60.55 3521.06 64.05 3518.26 80.5L3516.51 81.025C3513.88 79.275 3511.78 77.875 3507.41 77.875C3494.63 77.875 3494.63 88.55 3494.63 99.4C3494.63 102.2 3494.63 105.175 3494.81 107.975L3495.33 138.6L3494.11 140C3478.53 139.825 3473.81 139.825 3458.58 140.35L3457.36 139.125C3457.88 123.025 3458.41 106.925 3458.41 90.825C3458.41 70.35 3457.71 63 3456.48 50.4ZM3615.21 100.8L3560.96 101.5C3562.01 106.75 3563.06 110.6 3569.01 114.275C3571.63 115.85 3577.06 117.95 3585.11 117.95C3594.56 117.95 3604.01 116.2 3611.88 110.95L3613.11 111.825L3612.23 134.225L3611.18 135.8C3609.26 136.675 3607.16 137.55 3605.23 138.25C3602.08 139.3 3591.76 142.1 3578.28 142.1C3569.01 142.1 3555.01 140.7 3544.86 133.7C3531.56 124.6 3526.13 109.55 3526.13 93.275C3526.13 57.4 3551.33 44.275 3573.38 44.275C3582.31 44.275 3592.98 46.55 3600.51 52.5C3616.26 64.925 3616.43 86.45 3616.43 99.4L3615.21 100.8ZM3560.08 82.25L3583.53 81.9C3583.36 77.525 3582.83 66.15 3572.33 66.15C3571.46 66.15 3569.88 66.15 3567.96 67.025C3560.61 70.175 3560.26 77.875 3560.08 82.25ZM3685.47 139.3L3685.65 131.6C3679.35 137.55 3671.3 142.1 3659.4 142.1C3636.47 142.1 3624.4 120.225 3624.4 97.3C3624.4 81.2 3629.65 65.1 3642.25 55.3C3655.02 45.5 3671.82 45.85 3684.95 46.2C3685.12 25.725 3684.95 21.35 3683.9 7.69999L3684.95 6.65L3719.95 0.524991L3721 1.39999C3720.12 18.725 3720.12 20.65 3719.95 49.875C3719.95 56 3719.6 86.45 3719.6 93.275C3719.6 112.875 3719.95 123.9 3720.47 138.6L3719.42 140C3705.42 139.825 3701.05 139.825 3686.35 140.525L3685.47 139.3ZM3684.77 114.275C3685.12 95.9 3685.12 90.125 3684.95 69.3C3683.37 69.3 3681.8 69.125 3680.22 69.125C3665.52 69.125 3660.45 80.5 3660.45 95.2C3660.45 100.625 3660.8 106.05 3663.25 110.775C3665.7 114.975 3669.37 117.775 3674.27 117.775C3678.3 117.775 3681.45 116.025 3684.77 114.275ZM3822.15 16.1L3829.85 15.925C3833.87 15.75 3837.9 15.75 3841.92 15.75C3865.02 15.75 3872.9 18.375 3879.55 23.975C3885.85 29.225 3889 37.1 3889 45.325C3889 47.6 3888.82 52.325 3886.2 57.75C3881.82 66.675 3875 70.175 3870.27 72.625C3876.4 73.85 3884.62 75.425 3890.22 83.475C3894.77 90.125 3895.47 96.6 3895.47 101.675C3895.47 105.175 3895.3 115.325 3887.42 124.425C3875 138.95 3855.92 139.475 3830.55 140H3791L3790.12 139.125C3790.65 116.2 3791 93.275 3791 70.525C3791 42.175 3790.47 33.25 3789.42 17.5L3790.12 16.45L3822.15 16.1ZM3826.87 89.075V117.075C3834.75 117.25 3841.22 117.25 3846.3 114.975C3852.42 112.175 3854.87 107.1 3854.87 102.025C3854.87 92.05 3847.35 90.125 3845.07 89.6C3842.1 88.9 3840.52 88.9 3826.87 89.075ZM3827.22 38.5V64.925C3830.9 64.925 3833.87 64.925 3836.85 64.75C3848.05 63.875 3851.9 57.575 3851.9 51.275C3851.9 46.375 3849.8 43.575 3848.57 42.35C3844.55 38.15 3837.72 38.325 3827.22 38.5ZM3919.18 184.275L3918.3 182.875C3925.13 166.775 3926.88 162.75 3933.7 144.375C3927.05 124.075 3923.9 114.45 3919.18 101.15C3916.38 93.1 3913.23 84.875 3910.43 76.825C3904.48 60.025 3904.13 59.15 3899.4 47.95L3900.1 46.725C3917.25 46.55 3921.1 46.375 3937.55 45.15L3938.95 46.2C3944.38 69.65 3945.43 74.375 3952.08 98.175C3959.43 72.975 3960.65 67.9 3965.9 47.25L3966.95 46.2L3994.95 45.675L3996 46.9L3975 106.4L3966.08 133C3958.38 157.325 3956.63 163.45 3952.08 182.7L3950.68 183.75C3938.78 183.75 3935.1 183.75 3919.18 184.275Z" fill="#00629B"/>
<path d="M2967.86 1202.37C2904.46 1222.14 2824.71 1221.27 2764.63 1194.82C2753.74 1189.5 2740.02 1181.38 2736.41 1168.71C2733.65 1145.51 2758.57 1132.67 2775.52 1124.21C2785.43 1119.83 2795.58 1115 2806.57 1114.44C2816.86 1121.97 2827.58 1127.98 2838.15 1134.81C2817.63 1140.23 2792.99 1144.92 2783.5 1167.38C2785.15 1184.42 2804.51 1189.85 2817.91 1194.08C2866.37 1206.92 2918.74 1205.24 2965.27 1188.38C2974.02 1183.2 2987.88 1177.04 2986.66 1164.37C2985.15 1150.83 2969.61 1144.78 2958.76 1140.51C2952.1 1141.46 2945.77 1142.93 2939.57 1144.95C2936.24 1135.54 2933.37 1126.06 2929.45 1117C2949.97 1122.42 2970.52 1128.02 2991.8 1131.76V1132.22C2987.43 1132.71 2982.56 1134.21 2978.36 1135.86V1136.63C2990.44 1142.68 3007.21 1152.62 3007.35 1168.47C3004.48 1187.68 2983.51 1196.43 2967.79 1202.44M2856.53 1323.48C2859.08 1288.63 2859.54 1256.47 2861.36 1221.76C2873.58 1222.95 2884.15 1222.49 2895.32 1222.07L2896.09 1226.73L2900.47 1323.76C2885.8 1325.86 2870.29 1324.67 2856.53 1323.48ZM2872.21 1008.07L2878.27 988.756H2879C2891.4 1024.2 2904.25 1059.51 2917.55 1094.53L2890.98 1095.02L2890.38 1098.17L2894.3 1193.07V1194.54C2884.47 1196.22 2872.42 1195.76 2862.73 1194.85L2861.96 1193.77L2866.33 1096.04V1095.27C2858.94 1094.53 2849.56 1095.27 2842.04 1094.53L2872.21 1008.07ZM2975.42 1006.11C2974.65 1005.66 2972.37 1004.33 2972.37 1004.33L2971.11 1003.1C2955.64 988.161 2936.49 971.855 2915.76 956.074C2905.82 947.677 2882.3 930.566 2865.84 943.338L2865.42 943.653C2843.33 959.469 2824.43 974.235 2805.91 990.225C2804.68 991.17 2803.07 992.815 2803.07 992.815L2801.42 994.459C2747.72 1042.36 2705.89 1085.68 2673.47 1126.9C2673.57 1126.83 2670.98 1130.08 2670.98 1130.08C2662.23 1141.39 2654.25 1152.09 2650.89 1163.64C2651.03 1169.34 2651.9 1173.86 2653.97 1176.83C2681.94 1218.51 2720.1 1261.79 2767.5 1305.7C2767.29 1305.49 2787.25 1323.62 2787.25 1323.62C2816.65 1350.46 2844.45 1375.86 2876.45 1392.58C2883.24 1395.73 2893.99 1389.96 2901.73 1384.54C2960.93 1342.86 3013.58 1289.05 3052.86 1246.78C3052.89 1246.74 3067.32 1229.63 3067.32 1229.63C3084.47 1209.58 3100.68 1190.69 3109.43 1168.92C3109.57 1168.22 3109.68 1167.49 3109.68 1166.68C3109.68 1162.94 3107.68 1157.83 3102.68 1150.17C3068.37 1101.18 3025.41 1052.58 2975.45 1006.15M3122.7 1174.24C3110.34 1205.03 3085.24 1229.63 3063.36 1256.51C3016 1307.49 2965.97 1356.79 2909.99 1396.22C2898.64 1404.2 2883.42 1411.62 2869.83 1405.25C2828.63 1383.7 2793.9 1348.36 2757.77 1316.23C2715.97 1277.5 2673.99 1232.33 2642.31 1185.09C2637.62 1178.44 2636.25 1170.29 2636.43 1161.54C2640.52 1145.27 2651.69 1131.8 2662.26 1118.08C2699.69 1070.39 2745.62 1025.11 2791.97 983.787C2793.02 982.702 2794.95 980.463 2796.63 979.413C2816.58 962.198 2836.33 946.942 2857.16 932.036C2878.93 915.135 2906.21 929.166 2924.52 944.702C2943.67 959.329 2963.59 975.914 2981.09 992.815L2984.24 994.634C3032.73 1039.6 3077.75 1089.56 3114.69 1142.37C3120.74 1151.6 3126.03 1161.96 3122.7 1174.21M3195.77 1145.27L3193.95 1144.99C3138.25 1107.13 3086.33 1064.23 3037.42 1015.66L2983.37 959.224C2961.49 934.905 2940.2 908.067 2919.97 882.419L2895.39 847.533C2892.34 845.748 2888.6 842.739 2885.27 841.829C2878.06 838.645 2870.22 842.424 2864.3 846.938L2819.77 904.883C2748.35 993.27 2663.77 1075.74 2571.52 1139.01C2564.27 1144.78 2553.42 1150.34 2551.15 1159.69C2548.73 1168.12 2553.11 1175.08 2558.39 1180.37C2632.19 1231.17 2702.87 1291.53 2765.68 1360.39C2776.85 1372.15 2785.92 1383.77 2796.77 1394.82C2815.18 1419.25 2836.78 1443.85 2853.69 1470.09C2858.98 1475.65 2859.89 1484.75 2868.19 1487.44C2874.66 1489.72 2882.68 1491.26 2888.88 1487.44L2895 1481.25C2971.39 1373.09 3068.33 1275.89 3176.58 1197.48C3187.47 1187.78 3208.12 1184.21 3208.44 1166.26C3207.7 1157.94 3202.84 1149.82 3195.77 1145.27Z" fill="#00629B"/>
<path d="M2720.56 217.584C2716.37 218.268 2712.27 219.122 2711.59 219.549C2710.82 219.976 2709.03 220.66 2707.4 221.002C2703.73 221.771 2691.08 228.179 2691.08 229.204C2691.08 229.631 2690.49 229.973 2689.8 229.973C2689.12 229.973 2688.52 230.315 2688.52 230.742C2688.52 231.169 2687.75 231.767 2686.9 232.109C2686.04 232.365 2683.99 233.818 2682.28 235.355C2680.66 236.893 2678.27 239.115 2676.9 240.311C2672.89 243.985 2666.31 251.076 2666.31 251.76C2666.31 252.102 2665.45 253.298 2664.43 254.323C2661.78 256.972 2658.53 261.5 2652.98 269.958C2647.51 278.417 2645.89 281.322 2638.45 296.615C2628.71 316.437 2626.15 322.076 2623.07 330.62C2621.45 335.149 2619.31 340.19 2618.46 341.727C2617.52 343.265 2616.75 344.889 2616.75 345.401C2616.75 346.597 2619.66 346.341 2625.04 344.547C2627.77 343.693 2632.3 342.24 2635.12 341.386C2637.94 340.531 2640.67 339.591 2641.1 339.25C2641.61 338.908 2643.32 338.395 2644.95 338.054C2646.57 337.712 2648.45 337.114 2649.22 336.687C2650.93 335.832 2653.66 334.807 2654.77 334.636C2655.88 334.465 2658.79 333.354 2660.33 332.585C2661.09 332.158 2662.97 331.56 2664.6 331.218C2666.22 330.877 2668.02 330.279 2668.44 329.937C2669.3 329.253 2681.43 324.81 2688.52 322.589C2690.66 321.906 2693.65 320.795 2695.18 320.111C2701.08 317.377 2703.56 316.352 2705.61 315.839C2706.8 315.498 2709.37 314.558 2711.25 313.703C2713.21 312.763 2715.86 311.824 2717.14 311.482C2718.42 311.14 2722.1 309.602 2725.34 308.064C2728.59 306.441 2731.5 305.159 2731.67 305.159C2731.84 305.159 2734.15 304.22 2736.71 303.023C2739.27 301.827 2740.45 301.944 2742.69 300.887C2743.23 300.633 2743.58 300.679 2744 300.393C2744.41 300.106 2745.17 299.093 2746.62 298.495C2747.99 297.812 2750.63 296.103 2752.34 294.65C2757.64 290.037 2770.54 277.05 2770.54 276.281C2770.54 273.889 2769.6 274.316 2751.32 284.398C2744.31 288.328 2738.16 290.037 2724.41 291.831C2722.27 292.087 2719.45 292.6 2718 292.942C2716.63 293.198 2714.67 293.625 2713.73 293.711C2712.79 293.881 2710.91 294.223 2709.45 294.479C2685.27 298.837 2683.39 299.008 2674.25 298.41C2671.35 298.239 2667.16 294.223 2667.16 291.66C2667.16 288.926 2669.81 283.031 2672.46 279.357C2675.11 275.939 2694.16 256.801 2698.69 253.041C2700.65 251.418 2703.22 249.282 2704.24 248.342C2708.09 245.01 2714.41 239.798 2715.35 239.2C2716.8 238.26 2722.01 233.988 2723.89 232.109C2724.83 231.169 2728.34 228.349 2731.58 225.872C2734.91 223.394 2737.9 220.831 2738.33 220.147C2738.67 219.464 2739.61 218.866 2740.21 218.866C2740.89 218.866 2741.49 218.438 2741.49 218.011C2741.49 217.499 2739.27 217.157 2736.62 217.157C2733.89 217.157 2730.9 216.986 2729.96 216.815C2729.02 216.559 2724.83 216.986 2720.56 217.584Z" fill="#00629B"/>
<path d="M2799.59 218.097C2793.7 218.951 2788.14 220.062 2787.2 220.489C2786.26 220.916 2784.13 221.6 2782.5 221.942C2780.88 222.198 2779 222.796 2778.23 223.138C2777.55 223.565 2775.07 224.505 2772.68 225.359C2770.37 226.128 2765.16 228.521 2761.14 230.657C2757.13 232.793 2753.03 234.928 2752 235.441C2750.89 235.954 2750.04 236.637 2750.04 236.979C2750.04 237.406 2749.44 237.663 2748.75 237.663C2748.07 237.663 2747.47 238.09 2747.47 238.517C2747.47 239.03 2746.79 239.713 2746.02 240.055C2743.46 241.08 2737.22 245.523 2737.22 246.292C2737.22 246.719 2736.71 247.061 2736.2 247.061C2735.6 247.061 2733.55 248.428 2731.67 250.137C2729.79 251.76 2726.71 254.409 2724.92 255.861C2723.12 257.399 2720.05 260.048 2718.25 261.756C2716.37 263.551 2714.75 265.003 2714.58 265.003C2714.49 265.003 2711.93 267.31 2708.94 270.13C2703.9 274.914 2702.7 277.221 2706.21 275.427C2707.06 275 2712.78 273.803 2718.85 272.693C2725 271.667 2730.39 270.471 2730.81 270.13C2731.33 269.788 2733.38 269.19 2735.51 268.848C2737.65 268.506 2739.78 267.908 2740.21 267.566C2740.72 267.225 2741.66 266.968 2742.35 266.883C2744.74 266.883 2764.05 259.45 2769.86 256.374C2770.71 255.947 2771.82 255.605 2772.34 255.605C2772.85 255.605 2776.01 254.323 2779.34 252.7C2785.15 249.966 2790.28 247.744 2794.04 246.206C2794.98 245.779 2798.99 243.985 2803.01 242.105C2814.37 236.723 2818.22 235.099 2819.16 235.099C2819.67 235.099 2820.1 234.672 2820.1 234.245C2820.1 233.732 2820.69 233.391 2821.38 233.391C2822.06 233.391 2823.34 233.049 2824.2 232.622C2832.83 228.008 2845.56 222.198 2847.95 221.771C2849.49 221.515 2850.68 220.916 2850.43 220.575C2850 219.891 2842.74 218.524 2838.89 218.439C2837.7 218.353 2834.62 218.097 2832.06 217.755C2822.32 216.474 2810.19 216.644 2799.59 218.097Z" fill="#00629B"/>
<path d="M2629.99 262.525C2624.36 266.797 2619.66 270.557 2619.49 270.984C2619.31 271.496 2618.89 271.838 2618.46 271.838C2616.58 271.838 2603.94 284.227 2596.16 293.711C2586.76 304.989 2583.69 309.773 2576.42 323.956C2569.25 337.883 2560.19 365.821 2557.37 382.397C2556.6 387.01 2555.66 391.624 2555.32 392.649C2554.89 393.589 2554.3 396.58 2554.04 399.143C2553.7 401.706 2552.84 406.918 2552.16 410.677C2551.48 414.436 2550.71 419.221 2550.54 421.357C2550.28 423.493 2549.77 426.911 2549.34 429.047C2548.83 431.183 2548.31 435.198 2547.97 438.018L2547.46 443.144L2552.42 438.189C2558.91 431.781 2564.04 427.338 2564.89 427.338C2565.23 427.338 2566 426.911 2566.6 426.483C2567.2 425.971 2568.99 424.433 2570.61 423.066C2572.24 421.699 2573.95 420.503 2574.37 420.503C2574.8 420.503 2576.34 419.563 2577.88 418.452C2579.33 417.256 2581.98 415.547 2583.69 414.607C2585.4 413.582 2588.3 411.959 2590.09 410.933C2591.8 409.994 2597.87 406.747 2603.51 403.842C2625.47 392.564 2637.68 385.558 2644.69 380.261C2647.17 378.466 2649.56 376.929 2650.07 376.929C2650.5 376.929 2650.93 376.587 2650.93 376.245C2650.93 375.818 2653.32 373.767 2656.31 371.631C2659.21 369.41 2662.97 366.419 2664.6 364.967C2666.22 363.429 2670.58 359.499 2674.34 356.081C2678.01 352.749 2683.48 347.623 2686.47 344.632C2689.46 341.728 2692.28 339.335 2692.79 339.335C2693.22 339.335 2693.65 338.908 2693.65 338.481C2693.65 337.37 2693.13 337.37 2691.25 338.481C2690.49 338.908 2687.15 339.848 2683.82 340.531C2680.57 341.215 2674.76 342.582 2671.01 343.607C2667.25 344.632 2662.46 345.829 2660.33 346.341C2658.19 346.854 2656.14 347.537 2655.63 347.879C2655.2 348.221 2653.23 348.819 2651.35 349.161C2649.47 349.502 2647.51 350.101 2646.91 350.613C2646.4 351.04 2645.46 351.297 2644.78 351.211C2643.66 351.04 2641.61 351.638 2638.37 353.262C2637.26 353.774 2636.15 353.86 2635.8 353.604C2635.55 353.262 2634.86 353.347 2634.35 353.774C2633.84 354.202 2630.93 355.398 2627.86 356.423C2621.79 358.474 2614.62 361.208 2612.31 362.489C2611.45 362.916 2610.26 363.258 2609.66 363.258C2608.63 363.258 2590.86 372.058 2588.98 373.511C2587.62 374.536 2584.28 372.827 2584.28 371.119C2584.28 370.179 2585.05 368.47 2586.08 367.188C2588.13 364.54 2591.12 359.157 2595.14 350.87C2596.67 347.537 2598.55 343.693 2599.32 342.326C2600.09 340.873 2602.57 335.32 2604.79 329.937C2613.16 309.773 2617.43 299.52 2618.72 297.043C2619.4 295.59 2621.19 291.745 2622.56 288.499C2624.01 285.167 2627 279.015 2629.23 274.828C2631.45 270.557 2634.01 265.601 2634.95 263.721C2635.89 261.842 2637.68 259.279 2638.79 257.997C2642.9 253.554 2640.25 254.921 2629.99 262.525Z" fill="#00629B"/>
<path d="M2585.57 782.762C2585.74 783.958 2586.93 789.085 2588.13 794.297C2589.33 799.508 2591.12 806.422 2593.32 814.115C2597.02 827.076 2603 843.595 2604.02 846.927C2608.12 859.401 2622.48 887.169 2630.68 898.362C2632.99 901.523 2634.69 904.343 2634.52 904.513C2634.27 904.77 2631.87 904.172 2629.23 903.232C2626.49 902.292 2621.37 900.925 2617.78 900.241C2614.27 899.473 2613.36 899.073 2610.52 898.362C2604.95 896.968 2596.2 895.021 2596.2 895.021C2596.2 895.021 2589.21 893.228 2584.88 891.612C2581.93 890.508 2580.95 889.647 2577.45 888.451C2562.93 883.581 2540.45 874.781 2538.49 873.243C2537.98 872.815 2534.9 871.107 2531.65 869.398C2515.51 861.025 2505.6 854.275 2495 844.364C2475.69 826.251 2463.39 805.575 2456.9 780.199C2456.38 778.063 2455.61 775.585 2455.27 774.646C2454.08 771.741 2451.68 758.754 2452.11 758.241C2452.37 757.985 2453.82 759.779 2455.27 762.171C2456.81 764.564 2458.26 766.529 2458.6 766.529C2458.95 766.529 2460.06 768.067 2461.08 769.861C2462.11 771.741 2463.3 773.364 2463.73 773.535C2464.16 773.706 2466.46 776.44 2469.03 779.772C2476.89 790.11 2496.45 807.967 2510.72 817.878C2513.71 819.928 2517.56 822.663 2519.27 823.944C2525.59 828.643 2553.27 847.44 2559 850.943C2560.36 851.712 2562.5 853.25 2563.78 854.275C2565.06 855.386 2566.51 856.24 2567.03 856.24C2567.45 856.24 2568.31 856.838 2568.91 857.522C2570.44 859.401 2581.12 866.493 2582.41 866.493C2582.92 866.493 2583.69 865.468 2583.94 864.271C2584.37 862.563 2583.52 859.914 2580.61 853.762C2575.91 844.108 2572.32 834.966 2572.32 832.83C2572.32 832.061 2571.9 830.608 2571.47 829.669C2570.19 827.362 2568.05 816.938 2566.77 807.113C2564.55 790.623 2564.12 775.671 2565.23 759.694C2566.6 739.615 2567.03 737.138 2568.48 738.334C2569.85 739.445 2577.36 754.226 2577.79 756.703C2578.05 757.643 2578.99 760.121 2579.93 762.257C2580.87 764.393 2581.72 767.041 2581.72 768.238C2581.72 769.519 2582.06 770.801 2582.49 771.228C2583.17 771.997 2584.63 777.294 2585.57 782.762Z" fill="#00629B"/>
<path d="M2535.58 904.086C2543.19 909.213 2561.4 914.764 2578.9 917.244C2585.49 918.177 2595.88 918.655 2595.88 918.655C2595.88 918.655 2605.04 919.373 2618.03 919.892C2646.91 921.003 2659.3 922.712 2674.85 927.667C2690.14 932.452 2702.53 938.518 2723.89 951.505C2734.11 957.714 2750.77 973.487 2753.37 981.309C2756.21 989.847 2748.32 993.249 2744.49 990.186C2742.64 988.707 2721.06 964.512 2710.22 959.366C2697.47 953.311 2690.49 948.429 2675.71 948.6C2671.26 948.6 2666.48 948.686 2665.03 948.686C2663.66 948.686 2653.83 950.053 2643.24 951.591C2632.64 953.128 2621.11 954.837 2617.61 955.264C2614.1 955.777 2606.24 956.29 2600.18 956.375C2590.01 956.546 2586.56 955.973 2577.94 954.755L2577.77 954.731C2577.18 954.648 2576.8 954.594 2576.17 954.495C2559.62 951.899 2545.5 944.67 2536.61 937.92C2534.05 936.041 2530.63 933.477 2528.92 932.452C2521.4 927.326 2505.17 908.871 2496.97 895.969C2493.21 890.074 2485.94 875.635 2484.75 871.79C2483.98 869.056 2486.71 869.312 2490.56 872.217C2492.27 873.584 2496.54 876.746 2500.13 879.309C2503.72 881.872 2508.84 885.717 2511.58 887.853C2516.45 891.612 2523.37 896.397 2530.03 900.498C2531.91 901.694 2534.39 903.317 2535.58 904.086Z" fill="#00629B"/>
<path d="M2540.71 353.347C2539.17 355.483 2537.38 357.362 2536.78 357.619C2536.1 357.875 2535.58 358.644 2535.58 359.328C2535.58 360.011 2534.9 361.122 2534.13 361.72C2533.28 362.318 2531.14 364.71 2529.43 367.103C2527.64 369.409 2525.76 371.887 2525.16 372.571C2524.56 373.254 2523.28 375.048 2522.34 376.586C2521.4 378.039 2519.52 380.944 2518.24 382.909C2511.75 392.478 2505.25 406.063 2501.32 418.024C2495.6 435.625 2493.63 448.099 2493.63 466.212C2493.63 478.772 2494.15 487.059 2495.51 496.97C2496.03 500.73 2496.62 505.514 2496.79 507.65C2497.31 512.179 2497.73 515.511 2498.33 519.612C2498.59 521.235 2498.85 523.2 2498.93 523.884C2499.02 524.567 2499.96 531.488 2500.98 539.263C2502.09 547.038 2502.95 553.958 2503.03 554.642C2503.29 560.964 2503.8 565.92 2504.23 566.262C2504.48 566.518 2505.51 565.066 2506.45 563.015C2507.47 560.964 2509.35 557.632 2510.81 555.496C2512.17 553.36 2514.14 550.285 2515.08 548.661C2517.98 543.791 2522.17 538.067 2523.37 537.298C2523.96 536.956 2524.48 536.187 2524.48 535.76C2524.48 534.905 2535.24 521.662 2539.86 516.963C2541.05 515.682 2546.01 510.384 2550.96 505.173C2555.92 499.875 2561.64 493.809 2563.61 491.673C2567.88 487.145 2583.86 468.177 2586.42 464.503C2587.36 463.222 2589.07 460.915 2590.27 459.462C2591.46 458.01 2593.26 455.703 2594.11 454.336C2595.05 452.969 2596.59 450.833 2597.53 449.552C2598.47 448.27 2601.54 443.827 2604.36 439.726C2609.15 432.805 2611.11 429.815 2615.38 423.407C2616.24 422.04 2618.12 419.306 2619.57 417.255C2620.94 415.205 2621.88 413.325 2621.62 413.069C2621.37 412.898 2619.06 413.923 2616.5 415.547C2609.4 419.819 2583.94 436.821 2583 437.932C2582.58 438.444 2581.04 439.641 2579.59 440.495C2564.46 449.979 2538.49 474.756 2531.74 486.205C2528.58 491.588 2524.22 494.151 2523.2 491.16C2523.02 490.648 2522.68 483.984 2522.43 476.465C2522.08 463.564 2522.34 459.975 2524.48 442.46C2524.99 438.615 2525.93 430.071 2526.61 423.493C2528.24 407.43 2529.18 401.364 2531.82 389.744C2535.58 373.34 2537.38 367.701 2543.62 352.749C2545.49 348.477 2544.21 348.733 2540.71 353.347Z" fill="#00629B"/>
<path d="M2466.98 483.897C2465.27 486.888 2463.47 490.391 2462.88 491.843C2462.28 493.21 2461.08 495.346 2460.31 496.542C2457.75 500.387 2450.83 519.013 2449.21 526.531C2444.68 547.464 2448.18 577.282 2458.69 606.759C2460.57 611.971 2463.99 620.771 2465.18 623.591C2465.87 625.043 2466.38 626.495 2466.38 626.837C2466.38 627.521 2473.3 642.9 2478.94 654.605C2483.04 663.149 2494.49 683.056 2501.49 693.907C2503.8 697.41 2506.36 701.597 2507.13 703.049C2507.9 704.587 2508.84 705.869 2509.1 705.869C2509.35 705.869 2510.12 702.366 2510.72 698.008C2511.32 693.736 2512.34 688.354 2513.03 686.218C2513.71 683.996 2514.82 678.955 2515.59 675.025C2518.15 661.611 2534.47 609.749 2542.76 589.073C2545.41 582.409 2547.55 576.599 2547.55 576.001C2547.55 575.403 2548.06 573.779 2548.74 572.327C2549.43 570.789 2550.79 566.859 2551.82 563.612C2552.84 560.28 2554.98 554.556 2556.52 550.796C2561.13 539.518 2568.22 519.525 2567.79 519.013C2567.54 518.842 2566.86 519.525 2566.26 520.636C2565.74 521.661 2564.98 522.772 2564.72 523.028C2564.46 523.285 2562.84 525.335 2561.22 527.557C2559.59 529.864 2557.46 532.598 2556.52 533.537C2555.58 534.563 2554.47 536.015 2553.95 536.784C2553.53 537.639 2550.79 541.227 2547.97 544.815C2542.68 551.651 2540.37 554.726 2536.95 559.767C2535.84 561.391 2534.3 563.27 2533.53 563.954C2532.76 564.552 2532.17 565.577 2532.17 566.175C2532.17 566.688 2531.4 567.884 2530.46 568.738C2529.6 569.507 2527.3 572.754 2525.5 575.915C2523.62 578.991 2521.32 582.921 2520.38 584.545C2514.31 594.797 2505.51 612.911 2503.54 619.404C2503.12 620.856 2502.43 621.284 2500.81 621.113C2499.1 620.942 2498.42 620.002 2497.05 616.157C2494.83 609.835 2491.16 595.396 2489.96 588.389C2489.28 584.801 2486.97 577.026 2484.32 570.02C2482.87 566.004 2480.73 560.195 2479.62 556.948C2478.43 553.787 2477.14 550.369 2476.63 549.429C2476.03 548.489 2475.09 545.67 2474.41 543.278C2473.64 540.8 2472.53 536.87 2471.85 534.563C2469.37 526.617 2468.09 519.184 2467.57 511.238C2467.06 502.694 2468.34 486.46 2469.88 482.017C2471.5 477.404 2470.05 478.258 2466.98 483.897Z" fill="#00629B"/>
<path d="M2553.78 620.601C2552.76 624.958 2551.65 630.255 2551.31 632.391C2551.05 634.527 2548.57 643.157 2545.84 651.615C2534.47 686.816 2527.81 712.533 2526.61 725.435C2526.44 727.143 2525.93 730.817 2525.42 733.637C2524.9 736.456 2524.56 739.874 2524.56 741.326C2524.73 747.051 2523.79 756.449 2523.02 757.218C2521.66 758.585 2518.07 756.449 2516.45 753.459C2515.68 751.921 2513.71 748.589 2512.09 746.026C2510.47 743.462 2507.47 738.592 2505.51 735.346C2503.54 732.014 2501.24 728.596 2500.38 727.656C2499.53 726.716 2497.99 724.751 2496.97 723.213C2493.72 718.6 2484.15 706.382 2483.12 705.442C2482.53 704.929 2481.16 703.22 2480.05 701.597C2478.94 699.974 2477.49 698.18 2476.97 697.752C2475.86 696.812 2471.33 689.977 2465.61 680.75C2461 673.317 2447.67 646.916 2447.15 644.267C2446.9 643.242 2446.04 640.423 2445.1 638.03C2442.8 631.708 2440.92 625.556 2440.23 621.882C2439.98 620.173 2439.38 618.55 2439.04 618.294C2436.3 616.585 2434.94 649.394 2436.99 666.311C2437.76 672.889 2438.35 676.649 2439.38 682.8C2439.89 685.449 2442.8 697.154 2444.42 702.879C2448.18 716.207 2457.83 736.969 2463.39 743.633C2464.67 745.171 2467.15 748.162 2468.86 750.298C2475.26 758.158 2499.02 780.97 2502.95 783.106C2503.72 783.533 2506.36 785.669 2508.84 787.805C2511.23 789.941 2516.62 794.384 2520.72 797.716C2524.82 800.963 2529.01 804.466 2529.95 805.406C2530.97 806.346 2534.22 809.251 2537.29 811.814C2540.37 814.377 2544.73 818.307 2547.03 820.529C2549.43 822.75 2551.48 824.459 2551.56 824.288C2551.73 824.117 2551.31 820.358 2550.54 816C2548.14 802.33 2548.57 778.407 2551.73 754.997C2552.16 751.665 2552.76 747.051 2553.1 744.744C2553.36 742.352 2554.12 737.225 2554.81 733.21C2560.87 695.787 2561.47 691.259 2562.58 679.981C2562.67 678.614 2563.01 676.222 2563.27 674.769C2563.95 671.095 2564.04 647.258 2563.44 639.568C2563.1 636.151 2562.5 631.537 2561.99 629.315C2561.56 627.009 2561.05 624.36 2560.87 623.42C2560.28 620.515 2557.2 613.253 2556.35 612.996C2555.92 612.826 2554.72 616.243 2553.78 620.601Z" fill="#00629B"/>
<path d="M2959.21 967.026C2970.13 966.8 2976.34 963.622 2985.5 957.725C2986.79 956.89 2988.38 955.79 2988.74 955.479C2995.76 949.572 2993.42 955.631 2983.71 962.727C2980.99 964.71 2979.12 965.885 2975.82 967.295C2969.64 969.933 2965.57 971.46 2958.91 971.241L2959.21 967.026Z" fill="#00629B"/>
<path d="M2948.93 889.962C2930.32 894.962 2917.86 912.291 2920.89 928.93C2925.91 956 2958.97 968.501 2983.2 952.379C2997.74 942.724 3002.85 924.188 2995.14 908.929C2994.19 907.118 2991.33 903.411 2988.83 900.738C2979.05 890.565 2962.95 886.255 2948.93 889.962Z" fill="#00629B"/>
<path d="M2848.22 447.374C2849.6 448.457 2852.52 450.497 2855.45 452.213C2866.14 458.468 2870.21 459.853 2881.37 460.22C2888.03 460.44 2892.11 458.913 2898.28 456.274C2901.58 454.865 2903.45 453.69 2906.17 451.706C2915.88 444.61 2918.22 438.551 2911.21 444.459C2910.84 444.77 2909.25 445.87 2907.96 446.705C2898.8 452.601 2892.59 455.78 2881.67 456.005C2869.49 456.256 2859.8 451.759 2851.67 448.063C2846.75 445.7 2846.16 445.602 2848.22 447.374Z" fill="#00629B"/>
<path d="M2871.39 378.941C2852.78 383.942 2840.32 401.27 2843.35 417.909C2848.37 444.98 2881.43 457.48 2905.66 441.359C2920.2 431.703 2925.3 413.168 2917.6 397.908C2916.65 396.098 2913.79 392.39 2911.29 389.718C2901.51 379.545 2885.41 375.234 2871.39 378.941Z" fill="#00629B"/>
<path d="M2925.76 572.176C2927.14 573.259 2930.06 575.299 2932.99 577.015C2943.68 583.27 2947.75 584.655 2958.91 585.022C2965.57 585.241 2969.64 583.714 2975.82 581.076C2979.12 579.667 2980.99 578.492 2983.71 576.508C2993.42 569.412 2995.76 563.353 2988.75 569.261C2988.38 569.572 2986.79 570.671 2985.5 571.506C2976.34 577.403 2970.13 580.581 2959.21 580.807C2947.03 581.058 2937.34 576.56 2929.21 572.865C2924.29 570.502 2923.69 570.403 2925.76 572.176Z" fill="#00629B"/>
<path d="M2948.93 503.743C2930.32 508.743 2917.86 526.072 2920.89 542.711C2925.91 569.781 2958.97 582.282 2983.2 566.161C2997.74 556.505 3002.85 537.969 2995.14 522.71C2994.19 520.899 2991.33 517.192 2988.83 514.52C2979.05 504.347 2962.95 500.036 2948.93 503.743Z" fill="#00629B"/>
<path d="M2731.54 530.822C2732.92 531.905 2735.84 533.945 2738.77 535.661C2749.46 541.916 2753.53 543.301 2764.69 543.668C2771.35 543.887 2775.43 542.36 2781.6 539.722C2784.9 538.313 2786.77 537.138 2789.49 535.154C2799.2 528.058 2801.54 521.999 2794.53 527.907C2794.16 528.218 2792.57 529.317 2791.28 530.152C2782.12 536.049 2775.91 539.227 2764.99 539.453C2752.81 539.704 2743.12 535.206 2734.99 531.511C2730.07 529.148 2729.48 529.049 2731.54 530.822Z" fill="#00629B"/>
<path d="M2754.71 462.389C2736.1 467.389 2723.64 484.718 2726.67 501.356C2731.69 528.427 2764.75 540.928 2788.98 524.806C2803.52 515.15 2808.63 496.615 2800.92 481.355C2799.97 479.545 2797.12 475.838 2794.61 473.165C2784.83 462.992 2768.73 458.682 2754.71 462.389Z" fill="#00629B"/>
<path d="M2809.08 655.623C2810.46 656.706 2813.38 658.746 2816.31 660.461C2827 666.716 2831.07 668.102 2842.23 668.469C2848.9 668.688 2852.97 667.161 2859.14 664.523C2862.44 663.113 2864.31 661.938 2867.03 659.955C2876.75 652.859 2879.08 646.8 2872.07 652.707C2871.7 653.018 2870.12 654.118 2868.82 654.953C2859.66 660.85 2853.45 664.028 2842.53 664.254C2830.35 664.505 2820.67 660.007 2812.53 656.312C2807.61 653.949 2807.02 653.85 2809.08 655.623Z" fill="#00629B"/>
<path d="M2832.25 587.19C2813.64 592.19 2801.18 609.519 2804.21 626.158C2809.23 653.228 2842.29 665.729 2866.52 649.607C2881.06 639.952 2886.17 621.416 2878.46 606.157C2877.51 604.346 2874.66 600.639 2872.15 597.966C2862.37 587.793 2846.27 583.483 2832.25 587.19Z" fill="#00629B"/>
<path d="M2964.9 739.07C2966.28 740.153 2969.2 742.193 2972.13 743.909C2982.82 750.164 2986.89 751.549 2998.05 751.917C3004.71 752.136 3008.78 750.609 3014.96 747.971C3018.26 746.561 3020.13 745.386 3022.84 743.403C3032.56 736.306 3034.9 730.247 3027.88 736.155C3027.51 736.466 3025.93 737.566 3024.63 738.401C3015.48 744.298 3009.27 747.476 2998.34 747.701C2986.17 747.953 2976.48 743.455 2968.35 739.76C2963.42 737.396 2962.83 737.298 2964.9 739.07Z" fill="#00629B"/>
<path d="M2988.07 670.637C2969.46 675.638 2957 692.966 2960.03 709.605C2965.05 736.675 2998.11 749.176 3022.34 733.055C3036.88 723.399 3041.98 704.863 3034.28 689.604C3033.33 687.793 3030.47 684.086 3027.96 681.414C3018.18 671.241 3002.09 666.93 2988.07 670.637Z" fill="#00629B"/>
<path d="M2654 697.715C2655.38 698.798 2658.3 700.838 2661.23 702.554C2671.92 708.809 2675.99 710.194 2687.15 710.562C2693.82 710.781 2697.89 709.254 2704.06 706.616C2707.36 705.206 2709.23 704.031 2711.95 702.048C2721.67 694.951 2724 688.893 2716.99 694.8C2716.62 695.111 2715.03 696.211 2713.74 697.046C2704.58 702.943 2698.37 706.121 2687.45 706.346C2675.27 706.598 2665.59 702.1 2657.45 698.405C2652.53 696.041 2651.94 695.943 2654 697.715Z" fill="#00629B"/>
<path d="M2677.17 629.282C2658.57 634.282 2646.1 651.611 2649.13 668.249C2654.15 695.32 2687.21 707.821 2711.44 691.699C2725.98 682.043 2731.09 663.508 2723.39 648.248C2722.43 646.438 2719.58 642.731 2717.07 640.058C2707.29 629.885 2691.19 625.575 2677.17 629.282Z" fill="#00629B"/>
<path d="M2769.26 792.205C2770.65 793.299 2773.6 795.359 2776.56 797.092C2787.36 803.411 2791.47 804.81 2802.74 805.181C2809.47 805.402 2813.58 803.86 2819.82 801.195C2823.16 799.771 2825.04 798.584 2827.79 796.581C2837.6 789.413 2839.96 783.293 2832.88 789.26C2832.5 789.574 2830.91 790.685 2829.6 791.529C2820.35 797.485 2814.07 800.695 2803.04 800.923C2790.74 801.177 2780.96 796.634 2772.74 792.901C2767.77 790.514 2767.17 790.414 2769.26 792.205Z" fill="#00629B"/>
<path d="M2792.66 723.082C2773.87 728.133 2761.28 745.636 2764.34 762.443C2769.41 789.786 2802.8 802.413 2827.28 786.129C2841.96 776.376 2847.12 757.653 2839.34 742.24C2838.38 740.411 2835.49 736.667 2832.96 733.967C2823.08 723.691 2806.82 719.337 2792.66 723.082Z" fill="#00629B"/>
<path d="M2887.41 834.298C2888.81 835.392 2891.75 837.453 2894.72 839.186C2905.51 845.504 2909.62 846.903 2920.89 847.274C2927.63 847.495 2931.74 845.953 2937.98 843.288C2941.31 841.864 2943.2 840.677 2945.94 838.674C2955.76 831.506 2958.12 825.386 2951.03 831.353C2950.66 831.668 2949.06 832.778 2947.75 833.622C2938.5 839.578 2932.23 842.788 2921.2 843.016C2908.9 843.27 2899.11 838.727 2890.9 834.994C2885.92 832.607 2885.33 832.508 2887.41 834.298Z" fill="#00629B"/>
<path d="M2910.82 765.175C2892.02 770.225 2879.43 787.729 2882.49 804.535C2887.56 831.879 2920.96 844.506 2945.43 828.222C2960.12 818.468 2965.28 799.746 2957.5 784.333C2956.53 782.504 2953.65 778.759 2951.11 776.06C2941.24 765.784 2924.98 761.43 2910.82 765.175Z" fill="#00629B"/>
<path d="M3043.23 875.651C3044.62 876.745 3047.57 878.806 3050.53 880.539C3061.33 886.857 3065.44 888.256 3076.71 888.627C3083.44 888.849 3087.56 887.306 3093.8 884.642C3097.13 883.218 3099.02 882.031 3101.76 880.027C3111.58 872.86 3113.94 866.74 3106.85 872.707C3106.48 873.021 3104.88 874.132 3103.57 874.975C3094.32 880.932 3088.05 884.142 3077.01 884.37C3064.71 884.623 3054.93 880.08 3046.71 876.348C3041.74 873.961 3041.14 873.861 3043.23 875.651Z" fill="#00629B"/>
<path d="M3066.63 806.528C3047.84 811.579 3035.25 829.082 3038.31 845.889C3043.38 873.233 3076.77 885.859 3101.25 869.575C3115.93 859.822 3121.09 841.099 3113.31 825.686C3112.35 823.857 3109.47 820.113 3106.93 817.413C3097.05 807.138 3080.79 802.784 3066.63 806.528Z" fill="#00629B"/>
<path d="M3069.82 1042.55C3071.21 1043.64 3074.16 1045.7 3077.12 1047.43C3087.92 1053.75 3092.02 1055.15 3103.3 1055.52C3110.03 1055.74 3114.14 1054.2 3120.38 1051.54C3123.71 1050.11 3125.6 1048.92 3128.35 1046.92C3138.16 1039.75 3140.52 1033.63 3133.43 1039.6C3133.06 1039.92 3131.46 1041.03 3130.15 1041.87C3120.9 1047.83 3114.63 1051.04 3103.6 1051.26C3091.3 1051.52 3081.51 1046.97 3073.3 1043.24C3068.32 1040.85 3067.73 1040.76 3069.82 1042.55Z" fill="#00629B"/>
<path d="M3093.22 973.422C3074.42 978.472 3061.83 995.976 3064.89 1012.78C3069.96 1040.13 3103.36 1052.75 3127.83 1036.47C3142.52 1026.72 3147.68 1007.99 3139.9 992.58C3138.93 990.751 3136.05 987.006 3133.52 984.307C3123.64 974.031 3107.38 969.677 3093.22 973.422Z" fill="#00629B"/>
<path d="M2692.4 908.917C2693.78 910.001 2696.7 912.041 2699.63 913.756C2710.32 920.011 2714.39 921.397 2725.55 921.764C2732.22 921.983 2736.29 920.456 2742.46 917.818C2745.77 916.408 2747.63 915.233 2750.35 913.25C2760.07 906.154 2762.4 900.095 2755.39 906.002C2755.02 906.313 2753.44 907.413 2752.14 908.248C2742.98 914.145 2736.77 917.323 2725.85 917.549C2713.67 917.8 2703.99 913.302 2695.85 909.607C2690.93 907.244 2690.34 907.145 2692.4 908.917Z" fill="#00629B"/>
<path d="M2715.57 840.484C2696.97 845.485 2684.5 862.813 2687.53 879.452C2692.55 906.523 2725.61 919.023 2749.84 902.902C2764.38 893.246 2769.49 874.71 2761.79 859.451C2760.83 857.641 2757.98 853.933 2755.47 851.261C2745.69 841.088 2729.59 836.777 2715.57 840.484Z" fill="#00629B"/>
<path d="M2614.13 1041.84C2615.51 1042.93 2618.42 1044.97 2621.36 1046.68C2632.05 1052.94 2636.11 1054.32 2647.27 1054.69C2653.94 1054.91 2658.01 1053.38 2664.19 1050.74C2667.49 1049.33 2669.36 1048.16 2672.07 1046.18C2681.79 1039.08 2684.13 1033.02 2677.11 1038.93C2676.74 1039.24 2675.16 1040.34 2673.86 1041.17C2664.71 1047.07 2658.5 1050.25 2647.57 1050.47C2635.39 1050.73 2625.71 1046.23 2617.57 1042.53C2612.65 1040.17 2612.06 1040.07 2614.13 1041.84Z" fill="#00629B"/>
<path d="M2637.3 973.41C2618.69 978.41 2606.23 995.739 2609.26 1012.38C2614.28 1039.45 2647.33 1051.95 2671.57 1035.83C2686.11 1026.17 2691.21 1007.64 2683.51 992.376C2682.56 990.566 2679.7 986.859 2677.19 984.186C2667.41 974.013 2651.32 969.703 2637.3 973.41Z" fill="#00629B"/>
<path d="M2576.47 822.517C2577.84 823.6 2580.76 825.64 2583.69 827.356C2594.38 833.611 2598.45 834.996 2609.61 835.363C2616.28 835.583 2620.35 834.056 2626.53 831.418C2629.83 830.008 2631.69 828.833 2634.41 826.849C2644.13 819.753 2646.46 813.694 2639.45 819.602C2639.08 819.913 2637.5 821.013 2636.2 821.848C2627.04 827.745 2620.83 830.923 2609.91 831.148C2597.73 831.399 2588.05 826.902 2579.91 823.206C2574.99 820.843 2574.4 820.745 2576.47 822.517Z" fill="#00629B"/>
<path d="M2599.63 754.084C2601.42 773.051 2598.39 770.101 2601.42 786.74C2603.92 800.262 2583.6 816.461 2595.51 820.961C2607.44 825.469 2621.78 824.57 2633.9 816.501C2648.44 806.846 2653.55 788.31 2645.85 773.051C2644.89 771.24 2642.04 767.533 2639.53 764.86C2629.75 754.687 2613.65 750.377 2599.63 754.084Z" fill="#00629B"/>
<path d="M3071.24 656.361C3072.62 657.444 3075.54 659.484 3078.47 661.2C3089.16 667.455 3093.23 668.84 3104.39 669.207C3111.05 669.427 3115.12 667.899 3121.3 665.261C3124.6 663.852 3126.47 662.677 3129.19 660.693C3138.9 653.597 3141.24 647.538 3134.22 653.446C3133.85 653.757 3132.27 654.856 3130.97 655.692C3121.82 661.588 3115.61 664.766 3104.68 664.992C3092.51 665.243 3082.82 660.746 3074.69 657.05C3069.76 654.687 3069.17 654.589 3071.24 656.361Z" fill="#00629B"/>
<path d="M3094.41 587.928C3075.8 592.928 3063.34 610.257 3066.37 626.895C3071.39 653.966 3104.45 666.467 3128.68 650.345C3136.08 638.871 3141.19 620.335 3133.48 605.076C3132.53 603.266 3129.68 599.558 3127.17 596.886C3117.39 586.713 3108.43 584.221 3094.41 587.928Z" fill="#00629B"/>
<path d="M3032.1 489.468C3033.48 490.551 3036.4 492.591 3039.33 494.307C3050.02 500.562 3054.08 501.947 3065.24 502.314C3071.91 502.533 3075.98 501.006 3082.16 498.368C3085.46 496.959 3087.33 495.784 3090.04 493.8C3099.76 486.704 3102.1 480.645 3095.08 486.553C3094.71 486.864 3093.13 487.963 3091.83 488.798C3082.68 494.695 3076.47 497.873 3065.54 498.099C3053.37 498.35 3043.68 493.852 3035.54 490.157C3030.62 487.794 3030.03 487.695 3032.1 489.468Z" fill="#00629B"/>
<path d="M3055.27 421.034C3036.66 426.034 3024.2 443.363 3027.23 460.002C3032.25 487.072 3065.3 499.573 3089.54 483.452C3104.08 473.796 3079.15 463.411 3071.45 448.152C3070.5 446.341 3067.64 442.634 3065.13 439.962C3055.35 429.789 3069.29 417.327 3055.27 421.034Z" fill="#00629B"/>
<path d="M2842.25 299.553C2849.61 297.758 2869.96 294.595 2877.14 294.253C2885.95 293.74 2905.02 296.048 2918.62 299.211C2984.04 314.34 3038.35 361.353 3078.8 438.113C3104.46 486.664 3128.4 562.74 3146.45 652.577C3150.98 675.229 3151.84 679.76 3155.6 701.3C3161.59 735.32 3169.11 788.06 3173.05 823.534C3173.73 829.432 3174.5 835.586 3174.76 837.21C3175.35 840.971 3178.09 867.982 3180.31 891.489C3186.81 959.53 3192.72 1054.92 3193.48 1105.27C3193.91 1128.95 3193.74 1128.52 3191.43 1098.77C3187.84 1053.98 3182.97 1002.01 3178.6 962.863C3177.66 954.144 3176.3 941.836 3175.61 935.51C3174.93 929.185 3173.99 921.235 3173.47 917.987C3173.05 914.653 3172.02 906.96 3171.33 900.891L3171.16 899.462C3170.38 893.229 3169.21 883.908 3168.34 877.812C3167.55 871.704 3166.31 862.651 3165.52 856.871L3165.35 855.588C3164.07 845.673 3157.57 803.019 3155 787.206C3151.07 762.673 3142.34 715.062 3138.41 696.599C3132.85 670.442 3133.61 676.421 3130.8 663.433C3129.98 659.664 3128.75 653.774 3128.75 653.774L3111.69 585.876C3111.19 583.324 3109.7 578.628 3107.11 570.091C3098.81 543.08 3085.64 505.982 3082.31 500.255C3082.31 500.255 3080.56 496.232 3079.4 493.674C3067 466.349 3055.58 453.351 3040.32 427.513C3033.43 417.315 3023.38 404.178 3015.34 394.861C2982.33 356.652 2947.36 333.573 2909.64 325.025C2902.12 323.316 2892.61 322.394 2881.73 322.389C2870.78 322.385 2861.58 323.316 2853.88 325.025C2834.21 329.47 2817.36 336.736 2798.72 348.874C2775.46 363.918 2746.72 393.322 2725.09 424.18C2711.49 443.498 2696.1 469.141 2686.86 487.605C2668.39 524.702 2646.49 595.991 2629.56 674.374C2628.53 679.076 2627 686.17 2626.14 690.188C2624.34 698.394 2618.53 728.397 2615.88 743.184C2614.94 748.569 2613.91 753.869 2613.74 754.895C2613.74 754.895 2605.77 798.97 2601.77 827.38C2601.59 828.639 2601.48 829.413 2601.32 830.552L2601.25 831.056C2597.59 857.389 2592.62 898.584 2592.62 898.584C2591.75 899.451 2589.95 919.561 2589.95 919.561L2585 961.581C2585 961.581 2583.47 971.325 2582.52 981.241C2579.1 1016.03 2578.25 1025.01 2576.97 1038.94C2576.28 1046.72 2575.08 1059.37 2574.4 1067.15C2573.72 1074.92 2572.35 1091.85 2571.41 1104.76C2569.44 1130.4 2569.1 1133.65 2568.93 1125.27C2568.84 1117.66 2572.01 1038.08 2573.03 1022.7C2573.54 1015.86 2574.14 1006.29 2574.4 1001.33C2575.17 987.31 2576.54 968.847 2577.05 964.487L2580.5 917.958C2580.9 915.903 2581.12 912.383 2581.58 906.448C2582.04 900.512 2587.05 846.445 2591.85 808.148C2594.34 788.258 2595.87 777.974 2598.77 757.288C2605.1 712.498 2614.25 661.724 2623.23 621.805C2627.25 603.855 2627.76 601.803 2631.19 588.469C2656.33 490.083 2682.67 429.48 2721.15 381.184C2731.59 368.021 2749.89 349.472 2761.26 340.411C2785.81 320.837 2813.77 306.733 2842.25 299.553Z" fill="#00629B"/>
<path d="M2865.48 258.971C2865.99 234.169 2865.79 235.104 2869.98 234.084L2931.35 218.794C2937.39 217.775 2938.66 217.86 2940.11 219.389C2941.47 221.003 2949.12 235.018 2951.33 240.029C2952.09 241.643 2953.03 243.597 2953.45 244.276C2953.96 244.956 2955.07 247.079 2956 248.948C2956.94 250.817 2958.04 252.94 2958.55 253.62C2958.98 254.299 2959.91 256.253 2960.68 257.867C2963.23 263.728 2968.75 273.581 2970.03 274.515C2970.88 275.195 2978.27 275.28 2994.25 275.025C3009.04 274.77 3021.45 275.025 3029.1 275.704C3038.79 276.554 3041.26 276.554 3042.36 275.619C3043.81 274.43 3047.46 268.909 3052.99 259.566C3055.03 256.083 3057.07 252.601 3057.58 251.836C3058 251.072 3059.53 248.608 3060.81 246.315C3062.08 244.022 3065.06 239.095 3067.35 235.358C3069.65 231.62 3072.2 227.203 3072.88 225.42C3073.64 223.721 3075.09 222.192 3076.02 221.852C3077.89 221.428 3084.18 222.702 3091.15 225.08C3093.28 225.759 3098.46 227.373 3102.63 228.562C3106.88 229.837 3111.98 231.366 3114.1 232.045C3120.56 234.169 3133.99 237.991 3139.6 239.265C3141.22 239.69 3143.85 240.794 3145.47 241.728L3148.27 243.512L3147.76 256.848C3147.42 264.152 3146.83 277.743 3146.32 287.086C3145.3 307.047 3144.7 305.603 3156.94 311.804C3161.19 313.927 3166.63 316.815 3168.93 318.174C3171.31 319.533 3174.71 321.402 3176.58 322.421C3179.98 324.12 3186.95 328.622 3198.25 336.437C3209.64 344.336 3211.26 344.761 3216.02 340.938C3217.21 340.004 3219.42 338.73 3220.78 338.05C3222.22 337.371 3225.28 335.672 3227.58 334.313C3229.96 332.954 3232.76 331.425 3233.95 330.831C3235.14 330.236 3236.67 329.302 3237.35 328.707C3238.46 327.858 3244.66 324.46 3254.78 319.109C3256.22 318.344 3258.26 317.07 3259.45 316.221C3262.6 314.012 3266.08 314.352 3268.63 317.07C3269.82 318.429 3273.73 322.506 3277.22 326.244C3280.79 329.981 3288.27 337.965 3293.88 344.081C3299.49 350.112 3306.88 358.011 3310.28 361.664C3314.11 365.741 3316.32 368.714 3315.89 369.308C3315.55 369.903 3313.68 372.876 3311.73 375.934C3309.77 378.992 3306.8 383.578 3305.18 386.127C3303.57 388.675 3300.34 393.686 3298.13 397.169C3295.92 400.651 3292.86 405.408 3291.33 407.786C3289.88 410.08 3287.67 413.647 3286.4 415.601C3284.1 419.168 3283.34 424.604 3284.87 425.624C3286.23 426.388 3290.56 433.183 3296.6 443.971C3299.83 449.577 3303.4 455.947 3304.67 458.156C3305.95 460.364 3307.22 462.743 3307.48 463.422C3307.73 464.102 3308.92 466.48 3310.03 468.773C3311.22 470.982 3312.15 473.275 3312.15 473.87C3312.15 475.908 3317.34 485.507 3318.87 486.356C3319.72 486.781 3333.91 487.29 3350.49 487.545C3384.91 488.055 3382.87 487.545 3383.89 496.039C3384.23 498.587 3385.25 502.579 3386.19 504.958C3387.04 507.336 3387.8 510.479 3387.8 511.838C3387.8 513.197 3388.74 517.274 3389.93 520.842C3391.12 524.409 3392.05 528.486 3392.05 529.845C3392.05 531.204 3392.73 534.432 3393.67 537.15C3394.52 539.783 3395.71 544.795 3396.22 548.277C3396.73 551.675 3397.75 555.327 3398.43 556.262C3399.11 557.281 3399.7 558.555 3399.7 559.15C3399.7 560.679 3395.54 564.331 3393.07 564.926C3391.88 565.18 3390.01 566.2 3388.91 567.049C3387.8 567.898 3385.76 568.833 3384.49 569.173C3383.13 569.427 3381.34 570.447 3380.49 571.381C3379.73 572.23 3378.37 572.995 3377.6 572.995C3376.84 572.995 3374.97 573.929 3373.35 575.118C3371.74 576.308 3369.87 577.242 3369.1 577.242C3368.34 577.242 3367.32 577.667 3366.81 578.176C3366.38 578.601 3362.56 580.809 3358.39 582.933C3345.47 589.558 3344.62 590.068 3343.52 591.342C3342.75 592.276 3342.5 597.797 3342.67 611.897C3342.75 624.469 3342.33 634.916 3341.56 641.796C3340.37 651.565 3339.95 658.7 3340.12 663.711C3340.2 664.815 3340.97 665.919 3342.16 666.429C3343.18 666.854 3346.15 668.553 3348.7 670.166C3351.25 671.865 3354.57 673.734 3355.93 674.413C3357.37 675.178 3360.94 677.301 3363.92 679.17C3366.81 681.039 3369.78 682.568 3370.38 682.568C3370.97 682.568 3371.99 683.162 3372.59 684.012C3373.27 684.776 3374.97 685.88 3376.33 686.56C3377.77 687.239 3380.58 688.853 3382.7 690.212C3384.83 691.571 3387.46 693.185 3388.65 693.78C3395.79 697.262 3396.73 699.301 3393.75 705.077C3392.82 706.946 3392.05 709.154 3392.05 710.173C3392.05 711.108 3391.12 714.76 3390.01 718.243C3388.82 721.725 3386.87 728.011 3385.68 732.258C3384.49 736.42 3383.04 741.007 3382.62 742.451C3382.11 743.81 3381.34 746.358 3380.92 747.972C3380.41 749.585 3379.13 754.002 3378.03 757.74C3376.84 761.477 3375.73 765.554 3375.48 766.743C3375.31 768.018 3374.63 769.207 3374.03 769.377C3373.44 769.631 3363.15 769.461 3351.25 769.122C3339.35 768.782 3325.07 768.357 3319.63 768.187L3309.69 767.933L3307.14 770.396C3305.78 771.755 3304.33 773.963 3304.08 775.237C3303.74 776.596 3303.23 777.871 3302.8 778.125C3302.46 778.38 3300.59 781.608 3298.64 785.43C3296.68 789.168 3294.39 793.245 3293.54 794.519C3290.39 799.106 3285.38 806.835 3283.68 809.638C3282.74 811.252 3280.7 814.14 3279.17 816.179C3277.64 818.132 3275.26 821.19 3273.9 823.059C3272.46 824.842 3271.35 827.306 3271.35 828.41C3271.35 829.514 3273.73 834.611 3276.71 839.792C3283.34 851.429 3285.8 855.931 3288.69 861.452C3289.88 863.915 3291.92 867.228 3293.03 869.011C3294.22 870.71 3295.75 873.343 3296.43 874.787C3297.19 876.316 3298.64 879.034 3299.83 880.903C3301.02 882.772 3301.95 885.065 3301.95 886.084C3301.95 887.273 3295.66 893.729 3281.89 906.81C3270.84 917.257 3259.2 928.385 3255.97 931.612C3251.8 935.689 3249.42 937.388 3247.98 937.388C3246.79 937.388 3243.05 935.519 3239.65 933.311C3236.33 931.103 3232.93 928.894 3232.17 928.469C3231.4 927.96 3228.68 926.261 3226.22 924.562C3221.63 921.504 3213.47 916.323 3208.11 913.18C3206.58 912.246 3203.1 910.037 3200.38 908.254C3197.66 906.47 3194.6 904.601 3193.49 904.262C3191.11 903.327 3191.03 902.818 3189.84 888.548C3187.8 864.934 3184.74 835.29 3180.49 798.596L3178.79 784.326L3186.78 775.492C3215 744.234 3234.63 706.436 3243.56 666.004C3247.98 646.128 3248.83 637.804 3248.83 613.341C3248.83 588.879 3247.98 580.979 3243.64 561.613C3228.34 493.066 3185.33 435.986 3123.11 401.501C3107.39 392.837 3082.23 383.069 3066.59 379.586L3059.45 378.057L3054.6 371.687C3015.84 320.977 2965.61 289.719 2910.53 282.075C2899.22 280.546 2882.65 280.291 2874.83 281.65C2872.02 282.075 2868.71 282.5 2867.35 282.5H2865.05L2865.48 258.971Z" fill="#00629B"/>
<path d="M4555 725.051V656.919H4287.33V1008.33H4555V940.171H4384.66V865.714H4541.37V797.582H4384.66V725.076H4555V725.051ZM3965.14 1008.33H4232.8V940.171H4062.49V865.714H4219.2V797.582H4062.49V725.076H4232.8V656.944H3965.14V1008.35V1008.33ZM3642.97 1008.33H3910.63V940.171H3740.27V865.714H3896.98V797.582H3740.27V725.076H3910.63V656.944H3642.97V1008.35V1008.33ZM3494.53 1008.33H3591.86V656.869H3494.53V1008.28V1008.33Z" fill="#00629B"/>
<path d="M3594.34 1085.73C3595.92 1084.21 3597.89 1083.45 3600.26 1083.45C3602.18 1083.45 3603.75 1083.86 3604.97 1084.69C3606.23 1085.51 3607.16 1086.63 3607.77 1088.04C3608.41 1089.46 3608.74 1091.07 3608.77 1092.88H3591.67C3591.91 1089.63 3592.8 1087.24 3594.34 1085.73Z" fill="#00629B"/>
<path d="M3694.58 1105.27C3693.94 1103.27 3693.62 1100.81 3693.62 1097.88C3693.62 1093.45 3694.34 1090.14 3695.78 1087.92C3697.24 1085.71 3699.59 1084.61 3702.81 1084.61C3705 1084.61 3706.77 1085.1 3708.13 1086.09C3709.49 1087.07 3710.47 1088.55 3711.09 1090.52C3711.73 1092.47 3712.05 1094.92 3712.05 1097.88C3712.05 1100.81 3711.73 1103.27 3711.09 1105.27C3710.47 1107.27 3709.49 1108.77 3708.13 1109.79C3706.8 1110.8 3705.05 1111.3 3702.89 1111.3C3700.71 1111.3 3698.94 1110.8 3697.58 1109.79C3696.22 1108.77 3695.22 1107.27 3694.58 1105.27Z" fill="#00629B"/>
<path d="M3869.84 1099.59L3865.12 1099.75C3861.18 1099.86 3858.43 1100.57 3856.89 1101.87C3855.37 1103.18 3854.61 1104.9 3854.61 1107.03C3854.61 1108.89 3855.15 1110.23 3856.25 1111.03C3857.34 1111.8 3858.76 1112.18 3860.52 1112.18C3863.13 1112.18 3865.33 1111.41 3867.12 1109.87C3868.93 1108.32 3869.84 1106.12 3869.84 1103.27V1099.59Z" fill="#00629B"/>
<path d="M4068.67 1111.38C4072 1111.38 4074.35 1110.4 4075.7 1108.43C4077.09 1106.43 4077.82 1103.43 4077.9 1099.43V1098.12C4077.9 1093.77 4077.24 1090.46 4075.9 1088.16C4074.57 1085.85 4072.09 1084.69 4068.47 1084.69C4065.78 1084.69 4063.67 1085.85 4062.16 1088.16C4060.64 1090.48 4059.88 1093.83 4059.88 1098.2C4059.88 1102.57 4060.64 1105.86 4062.16 1108.07C4063.7 1110.28 4065.87 1111.38 4068.67 1111.38Z" fill="#00629B"/>
<path d="M4114.63 1085.73C4116.2 1084.21 4118.18 1083.45 4120.55 1083.45C4122.47 1083.45 4124.04 1083.86 4125.26 1084.69C4126.52 1085.51 4127.45 1086.63 4128.06 1088.04C4128.7 1089.46 4129.03 1091.07 4129.06 1092.88H4111.95C4112.19 1089.63 4113.09 1087.24 4114.63 1085.73Z" fill="#00629B"/>
<path d="M4274.38 1085.01H4281.57C4285.17 1085.01 4287.66 1084.45 4289.05 1083.33C4290.43 1082.18 4291.13 1080.5 4291.13 1078.29C4291.13 1076.05 4290.3 1074.46 4288.65 1073.5C4287.02 1072.51 4284.44 1072.02 4280.89 1072.02H4274.38V1085.01Z" fill="#00629B"/>
<path d="M4274.38 1094.84V1110.07H4282.45C4286.18 1110.07 4288.78 1109.35 4290.25 1107.91C4291.71 1106.47 4292.45 1104.54 4292.45 1102.11C4292.45 1100.67 4292.13 1099.41 4291.49 1098.32C4290.85 1097.22 4289.77 1096.37 4288.25 1095.76C4286.76 1095.14 4284.69 1094.84 4282.05 1094.84H4274.38Z" fill="#00629B"/>
<path d="M4377.97 1099.59L4373.26 1099.75C4369.31 1099.86 4366.57 1100.57 4365.03 1101.87C4363.51 1103.18 4362.75 1104.9 4362.75 1107.03C4362.75 1108.89 4363.29 1110.23 4364.39 1111.03C4365.48 1111.8 4366.9 1112.18 4368.66 1112.18C4371.27 1112.18 4373.47 1111.41 4375.26 1109.87C4377.07 1108.32 4377.97 1106.12 4377.97 1103.27V1099.59Z" fill="#00629B"/>
<path fill-rule="evenodd" clip-rule="evenodd" d="M4552.59 1040.85H3492.12V1140.76H4552.59V1040.85ZM3802.53 1084.77H3813.08V1075.61H3802.53V1072.82C3802.53 1071.22 3802.92 1069.91 3803.69 1068.9C3804.49 1067.86 3805.74 1067.34 3807.45 1067.34C3808.86 1067.34 3810.11 1067.46 3811.2 1067.7C3812.3 1067.94 3813.31 1068.21 3814.24 1068.5L3817.36 1059.55C3816.13 1059.07 3814.55 1058.64 3812.6 1058.27C3810.66 1057.87 3808.5 1057.67 3806.13 1057.67C3802.9 1057.67 3800.11 1058.11 3797.73 1058.99C3795.39 1059.84 3793.56 1061.33 3792.26 1063.46C3790.98 1065.57 3790.34 1068.53 3790.34 1072.34V1075.61L3783.63 1078.89V1084.77H3790.34V1120.3H3802.53V1084.77ZM3832.27 1120.3V1075.61H3820.08V1120.3H3832.27ZM3830.87 1059.39C3829.56 1058.54 3828 1058.11 3826.19 1058.11C3824.35 1058.11 3822.78 1058.54 3821.48 1059.39C3820.2 1060.21 3819.56 1061.77 3819.56 1064.06C3819.56 1066.33 3820.2 1067.9 3821.48 1068.78C3822.78 1069.63 3824.35 1070.06 3826.19 1070.06C3828 1070.06 3829.56 1069.63 3830.87 1068.78C3832.17 1067.9 3832.83 1066.33 3832.83 1064.06C3832.83 1061.77 3832.17 1060.21 3830.87 1059.39ZM3516.17 1074.46L3530.24 1120.3H3541.59L3556.65 1074.54H3557.01L3556.77 1079.45C3556.67 1081.61 3556.57 1083.89 3556.49 1086.29C3556.44 1088.68 3556.41 1090.8 3556.41 1092.64V1120.3H3567.97V1061.87H3551.1L3536.43 1106.55H3536.19L3522.36 1061.87H3505.5V1120.3H3516.57V1093.12C3516.57 1091.12 3516.51 1088.88 3516.41 1086.41C3516.3 1083.93 3516.18 1081.6 3516.05 1079.41C3515.94 1077.2 3515.86 1075.55 3515.81 1074.46H3516.17ZM3610.85 1077.17C3607.87 1075.57 3604.31 1074.78 3600.18 1074.78C3595.97 1074.78 3592.28 1075.65 3589.11 1077.41C3585.94 1079.14 3583.46 1081.76 3581.67 1085.25C3579.92 1088.71 3579.04 1093.05 3579.04 1098.28C3579.04 1103.42 3580.01 1107.68 3581.95 1111.06C3583.93 1114.45 3586.63 1116.97 3590.07 1118.62C3593.53 1120.27 3597.5 1121.1 3601.98 1121.1C3605.41 1121.1 3608.33 1120.84 3610.73 1120.34C3613.15 1119.83 3615.47 1119.03 3617.68 1117.94V1108.51C3615.18 1109.68 3612.74 1110.56 3610.37 1111.14C3608 1111.73 3605.39 1112.02 3602.54 1112.02C3599.1 1112.02 3596.41 1111.05 3594.46 1109.11C3592.54 1107.13 3591.52 1104.43 3591.39 1100.99H3620.2V1095.08C3620.2 1090.74 3619.39 1087.06 3617.76 1084.05C3616.14 1081.04 3613.83 1078.75 3610.85 1077.17ZM3655.49 1074.78C3660.26 1074.78 3664.1 1076.08 3667 1078.69C3669.91 1081.28 3671.36 1085.43 3671.36 1091.16V1120.3H3659.17V1094.2C3659.17 1091 3658.58 1088.59 3657.41 1086.96C3656.27 1085.34 3654.45 1084.53 3651.98 1084.53C3648.25 1084.53 3645.7 1085.79 3644.34 1088.32C3642.98 1090.86 3642.3 1094.51 3642.3 1099.27V1120.3H3630.11V1075.61H3639.43L3641.06 1081.33H3641.74C3642.7 1079.78 3643.89 1078.53 3645.3 1077.57C3646.74 1076.61 3648.33 1075.91 3650.06 1075.45C3651.82 1075 3653.63 1074.78 3655.49 1074.78ZM3723 1107.79C3724.01 1104.91 3724.52 1101.61 3724.52 1097.88C3724.52 1092.92 3723.58 1088.72 3721.72 1085.29C3719.88 1081.85 3717.33 1079.24 3714.08 1077.45C3710.86 1075.67 3707.16 1074.78 3702.97 1074.78C3698.47 1074.78 3694.59 1075.67 3691.34 1077.45C3688.09 1079.24 3685.59 1081.85 3683.83 1085.29C3682.07 1088.72 3681.19 1092.92 3681.19 1097.88C3681.19 1101.61 3681.71 1104.91 3682.75 1107.79C3683.82 1110.67 3685.31 1113.1 3687.23 1115.1C3689.17 1117.07 3691.45 1118.57 3694.06 1119.58C3696.7 1120.59 3699.59 1121.1 3702.73 1121.1C3706.09 1121.1 3709.1 1120.59 3711.77 1119.58C3714.46 1118.57 3716.75 1117.07 3718.64 1115.1C3720.56 1113.1 3722.01 1110.67 3723 1107.79ZM3775.59 1075.61V1120.3H3766.24L3764.6 1114.58H3763.96C3763 1116.1 3761.8 1117.34 3760.37 1118.3C3758.93 1119.26 3757.34 1119.96 3755.61 1120.42C3753.88 1120.87 3752.08 1121.1 3750.21 1121.1C3747.02 1121.1 3744.23 1120.54 3741.86 1119.42C3739.49 1118.27 3737.64 1116.5 3736.31 1114.1C3735 1111.7 3734.35 1108.59 3734.35 1104.75V1075.61H3746.54V1101.71C3746.54 1104.91 3747.11 1107.32 3748.26 1108.95C3749.4 1110.57 3751.23 1111.38 3753.73 1111.38C3756.21 1111.38 3758.15 1110.83 3759.57 1109.71C3760.98 1108.56 3761.96 1106.9 3762.52 1104.71C3763.11 1102.5 3763.4 1099.81 3763.4 1096.64V1075.61H3775.59ZM3863.36 1074.7C3869.36 1074.7 3873.95 1076 3877.15 1078.61C3880.35 1081.22 3881.95 1085.19 3881.95 1090.52V1120.3H3873.43L3871.07 1114.22H3870.75C3869.48 1115.82 3868.17 1117.13 3866.84 1118.14C3865.51 1119.15 3863.97 1119.9 3862.24 1120.38C3860.51 1120.86 3858.4 1121.1 3855.93 1121.1C3853.29 1121.1 3850.92 1120.59 3848.81 1119.58C3846.73 1118.57 3845.1 1117.02 3843.9 1114.94C3842.7 1112.84 3842.1 1110.17 3842.1 1106.95C3842.1 1102.21 3843.76 1098.72 3847.09 1096.48C3850.42 1094.21 3855.42 1092.96 3862.08 1092.72L3869.84 1092.48V1090.52C3869.84 1088.18 3869.22 1086.46 3868 1085.37C3866.77 1084.27 3865.07 1083.73 3862.88 1083.73C3860.72 1083.73 3858.6 1084.03 3856.53 1084.65C3854.45 1085.26 3852.37 1086.03 3850.29 1086.96L3846.25 1078.73C3848.63 1077.48 3851.28 1076.49 3854.21 1075.77C3857.17 1075.05 3860.22 1074.7 3863.36 1074.7ZM3948.73 1113.1C3950.41 1110.55 3951.25 1107.53 3951.25 1104.07C3951.25 1101.01 3950.67 1098.45 3949.53 1096.4C3948.38 1094.32 3946.74 1092.52 3944.61 1091C3942.51 1089.46 3939.96 1087.98 3936.98 1086.57C3934.53 1085.39 3932.48 1084.37 3930.82 1083.49C3929.2 1082.61 3927.97 1081.7 3927.15 1080.77C3926.35 1079.81 3925.95 1078.64 3925.95 1077.25C3925.95 1076.08 3926.23 1075.05 3926.79 1074.18C3927.35 1073.27 3928.17 1072.58 3929.27 1072.1C3930.36 1071.59 3931.68 1071.34 3933.22 1071.34C3935.43 1071.34 3937.61 1071.64 3939.74 1072.26C3941.87 1072.84 3944.28 1073.68 3946.97 1074.78L3950.97 1065.14C3947.96 1063.81 3945.07 1062.8 3942.3 1062.11C3939.55 1061.39 3936.66 1061.03 3933.62 1061.03C3929.57 1061.03 3926.06 1061.69 3923.07 1063.02C3920.11 1064.33 3917.84 1066.22 3916.24 1068.7C3914.64 1071.18 3913.84 1074.16 3913.84 1077.65C3913.84 1080.32 3914.29 1082.61 3915.2 1084.53C3916.13 1086.42 3917.32 1088.03 3918.75 1089.36C3920.19 1090.7 3921.71 1091.83 3923.31 1092.76C3924.91 1093.67 3926.39 1094.44 3927.75 1095.08C3929.91 1096.12 3931.84 1097.09 3933.54 1098C3935.27 1098.9 3936.63 1099.87 3937.62 1100.91C3938.6 1101.95 3939.1 1103.2 3939.1 1104.67C3939.1 1105.87 3938.82 1106.94 3938.26 1107.87C3937.7 1108.8 3936.79 1109.53 3935.54 1110.07C3934.32 1110.6 3932.69 1110.87 3930.66 1110.87C3927.73 1110.87 3924.78 1110.37 3921.79 1109.39C3918.81 1108.4 3915.93 1107.29 3913.16 1106.07V1117.58C3914.76 1118.35 3916.44 1119.01 3918.2 1119.54C3919.98 1120.04 3921.83 1120.43 3923.75 1120.7C3925.7 1120.96 3927.68 1121.1 3929.71 1121.1C3934.29 1121.1 3938.18 1120.4 3941.38 1119.02C3944.6 1117.63 3947.05 1115.66 3948.73 1113.1ZM3979.7 1111.38C3981.04 1111.38 3982.33 1111.25 3983.58 1110.99C3984.86 1110.72 3986.13 1110.39 3987.38 1109.99V1119.06C3986.07 1119.64 3984.45 1120.12 3982.5 1120.5C3980.58 1120.9 3978.48 1121.1 3976.19 1121.1C3973.52 1121.1 3971.12 1120.67 3968.99 1119.82C3966.89 1118.94 3965.22 1117.43 3964 1115.3C3962.8 1113.14 3962.2 1110.15 3962.2 1106.31V1084.77H3956.36V1079.61L3963.08 1075.53L3966.59 1066.1H3974.39V1075.61H3986.9V1084.77H3974.39V1106.31C3974.39 1108.01 3974.87 1109.29 3975.83 1110.15C3976.81 1110.97 3978.11 1111.38 3979.7 1111.38ZM4037.46 1120.3V1075.61H4025.27V1096.64C4025.27 1099.81 4024.97 1102.5 4024.39 1104.71C4023.83 1106.9 4022.84 1108.56 4021.43 1109.71C4020.02 1110.83 4018.07 1111.38 4015.59 1111.38C4013.09 1111.38 4011.26 1110.57 4010.12 1108.95C4008.97 1107.32 4008.4 1104.91 4008.4 1101.71V1075.61H3996.21V1104.75C3996.21 1108.59 3996.86 1111.7 3998.17 1114.1C3999.5 1116.5 4001.35 1118.27 4003.72 1119.42C4006.1 1120.54 4008.88 1121.1 4012.08 1121.1C4013.94 1121.1 4015.74 1120.87 4017.47 1120.42C4019.2 1119.96 4020.79 1119.26 4022.23 1118.3C4023.67 1117.34 4024.87 1116.1 4025.83 1114.58H4026.47L4028.1 1120.3H4037.46ZM4064.39 1121.1C4059.41 1121.1 4055.35 1119.15 4052.2 1115.26C4049.09 1111.34 4047.53 1105.6 4047.53 1098.04C4047.53 1090.39 4049.11 1084.61 4052.28 1080.69C4055.45 1076.75 4059.6 1074.78 4064.71 1074.78C4066.85 1074.78 4068.72 1075.07 4070.35 1075.65C4071.97 1076.24 4073.37 1077.03 4074.55 1078.01C4075.74 1079 4076.76 1080.1 4077.58 1081.33H4077.98C4077.82 1080.48 4077.62 1079.22 4077.38 1077.57C4077.17 1075.89 4077.06 1074.18 4077.06 1072.42V1058.11H4089.29V1120.3H4079.94L4077.58 1114.5H4077.06C4076.29 1115.73 4075.32 1116.85 4074.15 1117.86C4073 1118.85 4071.63 1119.63 4070.03 1120.22C4068.43 1120.8 4066.55 1121.1 4064.39 1121.1ZM4131.14 1077.17C4128.15 1075.57 4124.6 1074.78 4120.47 1074.78C4116.26 1074.78 4112.57 1075.65 4109.4 1077.41C4106.23 1079.14 4103.75 1081.76 4101.96 1085.25C4100.2 1088.71 4099.33 1093.05 4099.33 1098.28C4099.33 1103.42 4100.3 1107.68 4102.24 1111.06C4104.21 1114.45 4106.92 1116.97 4110.36 1118.62C4113.82 1120.27 4117.79 1121.1 4122.27 1121.1C4125.7 1121.1 4128.62 1120.84 4131.02 1120.34C4133.44 1119.83 4135.76 1119.03 4137.97 1117.94V1108.51C4135.47 1109.68 4133.03 1110.56 4130.66 1111.14C4128.29 1111.73 4125.68 1112.02 4122.83 1112.02C4119.39 1112.02 4116.7 1111.05 4114.75 1109.11C4112.83 1107.13 4111.81 1104.43 4111.67 1100.99H4140.49V1095.08C4140.49 1090.74 4139.68 1087.06 4138.05 1084.05C4136.43 1081.04 4134.12 1078.75 4131.14 1077.17ZM4175.78 1074.78C4180.55 1074.78 4184.39 1076.08 4187.29 1078.69C4190.2 1081.28 4191.65 1085.43 4191.65 1091.16V1120.3H4179.46V1094.2C4179.46 1091 4178.87 1088.59 4177.7 1086.96C4176.55 1085.34 4174.74 1084.53 4172.26 1084.53C4168.53 1084.53 4165.99 1085.79 4164.63 1088.32C4163.27 1090.86 4162.59 1094.51 4162.59 1099.27V1120.3H4150.4V1075.61H4159.72L4161.35 1081.33H4162.03C4162.99 1079.78 4164.18 1078.53 4165.59 1077.57C4167.03 1076.61 4168.61 1075.91 4170.35 1075.45C4172.1 1075 4173.92 1074.78 4175.78 1074.78ZM4226.9 1110.99C4225.65 1111.25 4224.35 1111.38 4223.02 1111.38C4221.42 1111.38 4220.13 1110.97 4219.15 1110.15C4218.19 1109.29 4217.71 1108.01 4217.71 1106.31V1084.77H4230.22V1075.61H4217.71V1066.1H4209.91L4206.4 1075.53L4199.68 1079.61V1084.77H4205.52V1106.31C4205.52 1110.15 4206.12 1113.14 4207.32 1115.3C4208.54 1117.43 4210.21 1118.94 4212.31 1119.82C4214.44 1120.67 4216.84 1121.1 4219.51 1121.1C4221.8 1121.1 4223.9 1120.9 4225.82 1120.5C4227.77 1120.12 4229.39 1119.64 4230.7 1119.06V1109.99C4229.44 1110.39 4228.18 1110.72 4226.9 1110.99ZM4261.99 1061.87H4280.18C4287.96 1061.87 4293.84 1062.96 4297.84 1065.14C4301.84 1067.33 4303.84 1071.16 4303.84 1076.65C4303.84 1078.86 4303.48 1080.86 4302.76 1082.65C4302.06 1084.43 4301.05 1085.9 4299.72 1087.04C4298.39 1088.19 4296.76 1088.94 4294.84 1089.28V1089.68C4296.79 1090.08 4298.55 1090.78 4300.12 1091.76C4301.69 1092.72 4302.94 1094.13 4303.88 1096C4304.83 1097.84 4305.31 1100.29 4305.31 1103.35C4305.31 1106.9 4304.45 1109.93 4302.72 1112.46C4300.98 1115 4298.51 1116.94 4295.28 1118.3C4292.09 1119.63 4288.28 1120.3 4283.85 1120.3H4261.99V1061.87ZM4343.08 1074.89C4342.28 1074.81 4341.58 1074.78 4340.96 1074.78C4338.99 1074.78 4337.15 1075.16 4335.45 1075.93C4333.77 1076.68 4332.27 1077.69 4330.93 1078.97C4329.63 1080.22 4328.54 1081.61 4327.66 1083.13H4327.06L4325.26 1075.61H4316.03V1120.3H4328.22V1097.56C4328.22 1095.45 4328.55 1093.68 4329.21 1092.24C4329.91 1090.78 4330.84 1089.6 4332.01 1088.72C4333.18 1087.82 4334.5 1087.16 4335.97 1086.77C4337.46 1086.37 4338.99 1086.17 4340.57 1086.17C4341.1 1086.17 4341.72 1086.21 4342.44 1086.29C4343.19 1086.34 4343.76 1086.43 4344.16 1086.57L4345.08 1075.13C4344.58 1075.03 4343.91 1074.95 4343.08 1074.89ZM4371.5 1074.7C4377.49 1074.7 4382.09 1076 4385.29 1078.61C4388.49 1081.22 4390.08 1085.19 4390.08 1090.52V1120.3H4381.57L4379.21 1114.22H4378.89C4377.61 1115.82 4376.31 1117.13 4374.98 1118.14C4373.64 1119.15 4372.11 1119.9 4370.38 1120.38C4368.65 1120.86 4366.54 1121.1 4364.07 1121.1C4361.43 1121.1 4359.06 1120.59 4356.95 1119.58C4354.87 1118.57 4353.23 1117.02 4352.04 1114.94C4350.84 1112.84 4350.24 1110.17 4350.24 1106.95C4350.24 1102.21 4351.9 1098.72 4355.23 1096.48C4358.56 1094.21 4363.56 1092.96 4370.22 1092.72L4377.97 1092.48V1090.52C4377.97 1088.18 4377.36 1086.46 4376.14 1085.37C4374.91 1084.27 4373.2 1083.73 4371.02 1083.73C4368.86 1083.73 4366.74 1084.03 4364.67 1084.65C4362.59 1085.26 4360.51 1086.03 4358.43 1086.96L4354.39 1078.73C4356.77 1077.48 4359.42 1076.49 4362.35 1075.77C4365.3 1075.05 4368.36 1074.7 4371.5 1074.7ZM4439.56 1078.69C4436.66 1076.08 4432.82 1074.78 4428.05 1074.78C4426.19 1074.78 4424.38 1075 4422.62 1075.45C4420.89 1075.91 4419.3 1076.61 4417.86 1077.57C4416.45 1078.53 4415.26 1079.78 4414.3 1081.33H4413.62L4411.99 1075.61H4402.67V1120.3H4414.86V1099.27C4414.86 1094.51 4415.54 1090.86 4416.9 1088.32C4418.26 1085.79 4420.81 1084.53 4424.54 1084.53C4427.01 1084.53 4428.83 1085.34 4429.97 1086.96C4431.14 1088.59 4431.73 1091 4431.73 1094.2V1120.3H4443.92V1091.16C4443.92 1085.43 4442.47 1081.28 4439.56 1078.69ZM4474.61 1121.1C4470.19 1121.1 4466.42 1120.3 4463.3 1118.7C4460.19 1117.07 4457.81 1114.57 4456.19 1111.18C4454.56 1107.8 4453.75 1103.47 4453.75 1098.2C4453.75 1092.73 4454.67 1088.28 4456.51 1084.85C4458.37 1081.38 4460.95 1078.84 4464.22 1077.21C4467.53 1075.59 4471.35 1074.78 4475.69 1074.78C4478.78 1074.78 4481.45 1075.08 4483.69 1075.69C4485.95 1076.28 4487.92 1076.99 4489.6 1077.81L4486 1087.24C4484.09 1086.47 4482.3 1085.85 4480.65 1085.37C4479 1084.86 4477.35 1084.61 4475.69 1084.61C4473.56 1084.61 4471.79 1085.11 4470.38 1086.13C4468.97 1087.11 4467.91 1088.6 4467.22 1090.6C4466.53 1092.6 4466.18 1095.1 4466.18 1098.12C4466.18 1101.07 4466.55 1103.52 4467.3 1105.47C4468.05 1107.41 4469.13 1108.87 4470.54 1109.83C4471.95 1110.76 4473.67 1111.22 4475.69 1111.22C4478.22 1111.22 4480.48 1110.89 4482.45 1110.23C4484.42 1109.53 4486.34 1108.57 4488.2 1107.35V1117.78C4486.34 1118.95 4484.38 1119.79 4482.33 1120.3C4480.3 1120.83 4477.73 1121.1 4474.61 1121.1ZM4510.78 1070.78V1058.11H4498.59V1120.3H4510.78V1099.27C4510.78 1096.1 4511.08 1093.43 4511.66 1091.24C4512.25 1089.03 4513.25 1087.36 4514.66 1086.25C4516.07 1085.1 4518.01 1084.53 4520.46 1084.53C4522.91 1084.53 4524.72 1085.34 4525.89 1086.96C4527.06 1088.59 4527.65 1091 4527.65 1094.2V1120.3H4539.84V1091.16C4539.84 1087.32 4539.17 1084.21 4537.84 1081.81C4536.51 1079.38 4534.64 1077.61 4532.25 1076.49C4529.85 1075.35 4527.04 1074.78 4523.81 1074.78C4521.98 1074.78 4520.26 1075 4518.66 1075.45C4517.06 1075.91 4515.59 1076.61 4514.26 1077.57C4512.96 1078.53 4511.82 1079.78 4510.86 1081.33H4510.22C4510.3 1080.5 4510.41 1079.09 4510.54 1077.09C4510.7 1075.09 4510.78 1072.99 4510.78 1070.78Z" fill="#00629B"/>
</svg>
